solid mesh
  facet normal 0.0 0.0 0.0
    outer loop
      vertex 0.07609999847412109 9.99999977647751e-06 -0.04725985770589478
      vertex 0.07609999847412109 1.025600713450479e-25 -0.049259857705894784
      vertex 0.07609999847412109 1.025600713450479e-25 -0.04725985770589478
    endloop
  endfacet
  facet normal 0.0 0.0 0.0
    outer loop
      vertex 0.07609999847412109 9.99999977647751e-06 -0.04725985770589478
      vertex 0.07609999847412109 9.99999977647751e-06 -0.049259857705894784
      vertex 0.07609999847412109 1.025600713450479e-25 -0.049259857705894784
    endloop
  endfacet
  facet normal 0.0 0.0 0.0
    outer loop
      vertex 0.07609999847412109 9.99999977647751e-06 -0.049259857705894784
      vertex 0.07611000061035156 1.025600713450479e-25 -0.049259857705894784
      vertex 0.07609999847412109 1.025600713450479e-25 -0.049259857705894784
    endloop
  endfacet
  facet normal 0.0 0.0 0.0
    outer loop
      vertex 0.07609999847412109 9.99999977647751e-06 -0.049259857705894784
      vertex 0.07611000061035156 9.99999977647751e-06 -0.049259857705894784
      vertex 0.07611000061035156 1.025600713450479e-25 -0.049259857705894784
    endloop
  endfacet
  facet normal 0.0 0.0 0.0
    outer loop
      vertex 0.07611000061035156 9.99999977647751e-06 -0.049259857705894784
      vertex 0.07611000061035156 1.025600713450479e-25 -0.04725985770589478
      vertex 0.07611000061035156 1.025600713450479e-25 -0.049259857705894784
    endloop
  endfacet
  facet normal 0.0 0.0 0.0
    outer loop
      vertex 0.07611000061035156 9.99999977647751e-06 -0.049259857705894784
      vertex 0.07611000061035156 9.99999977647751e-06 -0.04725985770589478
      vertex 0.07611000061035156 1.025600713450479e-25 -0.04725985770589478
    endloop
  endfacet
  facet normal 0.0 0.0 0.0
    outer loop
      vertex 0.07611000061035156 9.99999977647751e-06 -0.04725985770589478
      vertex 0.07609999847412109 1.025600713450479e-25 -0.04725985770589478
      vertex 0.07611000061035156 1.025600713450479e-25 -0.04725985770589478
    endloop
  endfacet
  facet normal 0.0 0.0 0.0
    outer loop
      vertex 0.07611000061035156 9.99999977647751e-06 -0.04725985770589478
      vertex 0.07609999847412109 9.99999977647751e-06 -0.04725985770589478
      vertex 0.07609999847412109 1.025600713450479e-25 -0.04725985770589478
    endloop
  endfacet
  facet normal 0.0 0.0 0.0
    outer loop
      vertex 0.07611000061035156 9.99999977647751e-06 -0.04725985770589478
      vertex 0.07611000061035156 9.99999977647751e-06 -0.049259857705894784
      vertex 0.07609999847412109 9.99999977647751e-06 -0.049259857705894784
    endloop
  endfacet
  facet normal 0.0 0.0 0.0
    outer loop
      vertex 0.07611000061035156 9.99999977647751e-06 -0.04725985770589478
      vertex 0.07609999847412109 9.99999977647751e-06 -0.049259857705894784
      vertex 0.07609999847412109 9.99999977647751e-06 -0.04725985770589478
    endloop
  endfacet
  facet normal 0.0 0.0 0.0
    outer loop
      vertex 0.07609999847412109 1.025600713450479e-25 -0.049259857705894784
      vertex 0.07611000061035156 1.025600713450479e-25 -0.049259857705894784
      vertex 0.07609999847412109 1.025600713450479e-25 -0.04725985770589478
    endloop
  endfacet
  facet normal 0.0 0.0 0.0
    outer loop
      vertex 0.07609999847412109 1.025600713450479e-25 -0.04725985770589478
      vertex 0.07611000061035156 1.025600713450479e-25 -0.049259857705894784
      vertex 0.07611000061035156 1.025600713450479e-25 -0.04725985770589478
    endloop
  endfacet
endsolid mesh
