solid mesh
  facet normal 0.0 0.0 0.0
    outer loop
      vertex 0.007490031054993536 -0.0796486288990787 -0.008378113646609163
      vertex 0.0074975092921456335 -0.07964790410659824 -0.008188355345827913
      vertex 0.0074999998126229275 -0.07964765996597324 -0.008000000853640414
    endloop
  endfacet
  facet normal 0.0 0.0 0.0
    outer loop
      vertex 0.007468006423493294 -0.07965073461196932 -0.00868033685217557
      vertex 0.007490031054993536 -0.0796486288990787 -0.008378113646609163
      vertex 0.0074999998126229275 -0.07964765996597324 -0.008000000853640414
    endloop
  endfacet
  facet normal 0.0 0.0 0.0
    outer loop
      vertex 0.007433449080963999 -0.07965400762222323 -0.008984433074099398
      vertex 0.007468006423493294 -0.07965073461196932 -0.00868033685217557
      vertex 0.0074999998126229275 -0.07964765996597324 -0.008000000853640414
    endloop
  endfacet
  facet normal 0.0 0.0 0.0
    outer loop
      vertex 0.007386316588898573 -0.07965841741226229 -0.00928941430578885
      vertex 0.007433449080963999 -0.07965400762222323 -0.008984433074099398
      vertex 0.0074999998126229275 -0.07964765996597324 -0.008000000853640414
    endloop
  endfacet
  facet normal 0.0 0.0 0.0
    outer loop
      vertex 0.007326569369812881 -0.07966393346450838 -0.009594281096560336
      vertex 0.007386316588898573 -0.07965841741226229 -0.00928941430578885
      vertex 0.0074999998126229275 -0.07964765996597324 -0.008000000853640414
    endloop
  endfacet
  facet normal 0.0 0.0 0.0
    outer loop
      vertex 0.0037541358981331217 -0.07991186589859045 -8.536404416191745e-10
      vertex 0.0074999998126229275 -0.07964765996597324 -0.008000000853640414
      vertex 0.0074999998126228686 -0.07964765996597326 -8.536404130849568e-10
    endloop
  endfacet
  facet normal 0.0 0.0 0.0
    outer loop
      vertex 0.007254165938874163 -0.07967053289077793 -0.00989804162512479
      vertex 0.007326569369812881 -0.07966393346450838 -0.009594281096560336
      vertex 0.0074999998126229275 -0.07964765996597324 -0.008000000853640414
    endloop
  endfacet
  facet normal 0.0 0.0 0.0
    outer loop
      vertex 0.007169064811249653 -0.07967820043228183 -0.010199707884890415
      vertex 0.007254165938874163 -0.07967053289077793 -0.00989804162512479
      vertex 0.0074999998126229275 -0.07964765996597324 -0.008000000853640414
    endloop
  endfacet
  facet normal 0.0 0.0 0.0
    outer loop
      vertex 0.007071225455780906 -0.07968689794204745 -0.010498284239870884
      vertex 0.007169064811249653 -0.07967820043228183 -0.010199707884890415
      vertex 0.0074999998126229275 -0.07964765996597324 -0.008000000853640414
    endloop
  endfacet
  facet normal 0.0 0.0 0.0
    outer loop
      vertex 0.0069606068644723134 -0.07969661016128574 -0.01079277505407987
      vertex 0.007071225455780906 -0.07968689794204745 -0.010498284239870884
      vertex 0.0074999998126229275 -0.07964765996597324 -0.008000000853640414
    endloop
  endfacet
  facet normal 0.0 0.0 0.0
    outer loop
      vertex 0.00683721952774136 -0.07970729131362948 -0.011082215209109167
      vertex 0.0069606068644723134 -0.07969661016128574 -0.01079277505407987
      vertex 0.0074999998126229275 -0.07964765996597324 -0.008000000853640414
    endloop
  endfacet
  facet normal 0.0 0.0 0.0
    outer loop
      vertex 0.006701541713257719 -0.0797187964405826 -0.011365826506716591
      vertex 0.00683721952774136 -0.07970729131362948 -0.011082215209109167
      vertex 0.0074999998126229275 -0.07964765996597324 -0.008000000853640414
    endloop
  endfacet
  facet normal 0.0 0.0 0.0
    outer loop
      vertex 0.006554303935547759 -0.07973101873062167 -0.011642945189577921
      vertex 0.006701541713257719 -0.0797187964405826 -0.011365826506716591
      vertex 0.0074999998126229275 -0.07964765996597324 -0.008000000853640414
    endloop
  endfacet
  facet normal 0.0 0.0 0.0
    outer loop
      vertex 0.006396240046997957 -0.07974383611343418 -0.01191289605627714
      vertex 0.006554303935547759 -0.07973101873062167 -0.011642945189577921
      vertex 0.0074999998126229275 -0.07964765996597324 -0.008000000853640414
    endloop
  endfacet
  facet normal 0.0 0.0 0.0
    outer loop
      vertex 0.006396240046997957 -0.07974383611343418 -0.01191289605627714
      vertex 0.0074999998126229275 -0.07964765996597324 -0.008000000853640414
      vertex 0.0037541358981331217 -0.07991186589859045 -8.536404416191745e-10
    endloop
  endfacet
  facet normal 0.0 0.0 0.0
    outer loop
      vertex 0.006228081992646153 -0.07975713414810214 -0.012175015349490032
      vertex 0.006396240046997957 -0.07974383611343418 -0.01191289605627714
      vertex 0.0037541358981331217 -0.07991186589859045 -8.536404416191745e-10
    endloop
  endfacet
  facet normal 0.0 0.0 0.0
    outer loop
      vertex 0.006050564101715978 -0.07977079839370761 -0.012428631682497845
      vertex 0.006228081992646153 -0.07975713414810214 -0.012175015349490032
      vertex 0.0037541358981331217 -0.07991186589859045 -8.536404416191745e-10
    endloop
  endfacet
  facet normal 0.0 0.0 0.0
    outer loop
      vertex 0.005864418319245277 -0.0797847144093326 -0.012673077483279099
      vertex 0.006050564101715978 -0.07977079839370761 -0.012428631682497845
      vertex 0.0037541358981331217 -0.07991186589859045 -8.536404416191745e-10
    endloop
  endfacet
  facet normal 0.0 0.0 0.0
    outer loop
      vertex 0.005670378497620523 -0.07979876012466464 -0.0129076851798123
      vertex 0.005864418319245277 -0.0797847144093326 -0.012673077483279099
      vertex 0.0037541358981331217 -0.07991186589859045 -8.536404416191745e-10
    endloop
  endfacet
  facet normal 0.0 0.0 0.0
    outer loop
      vertex 0.005469177058716716 -0.07981282109878572 -0.01313178338537871
      vertex 0.005670378497620523 -0.07979876012466464 -0.0129076851798123
      vertex 0.0037541358981331217 -0.07991186589859045 -8.536404416191745e-10
    endloop
  endfacet
  facet normal 0.0 0.0 0.0
    outer loop
      vertex 0.005261431506653729 -0.07982679814956697 -0.01334482278357207
      vertex 0.005469177058716716 -0.07981282109878572 -0.01313178338537871
      vertex 0.0037541358981331217 -0.07991186589859045 -8.536404416191745e-10
    endloop
  endfacet
  facet normal 0.0 0.0 0.0
    outer loop
      vertex 0.005043985179444258 -0.07984080571792634 -0.013549984831911915
      vertex 0.005261431506653729 -0.07982679814956697 -0.01334482278357207
      vertex 0.0037541358981331217 -0.07991186589859045 -8.536404416191745e-10
    endloop
  endfacet
  facet normal 0.0 0.0 0.0
    outer loop
      vertex 0.004815628341217942 -0.07985486669204744 -0.01374842538366973
      vertex 0.005043985179444258 -0.07984080571792634 -0.013549984831911915
      vertex 0.0037541358981331217 -0.07991186589859045 -8.536404416191745e-10
    endloop
  endfacet
  facet normal 0.0 0.0 0.0
    outer loop
      vertex 0.004577028563996262 -0.07986886663101228 -0.013939415831667778
      vertex 0.004815628341217942 -0.07985486669204744 -0.01374842538366973
      vertex 0.0037541358981331217 -0.07991186589859045 -8.536404416191745e-10
    endloop
  endfacet
  facet normal 0.0 0.0 0.0
    outer loop
      vertex 0.00432885532714934 -0.07988267583511384 -0.014122219939333797
      vertex 0.004577028563996262 -0.07986886663101228 -0.013939415831667778
      vertex 0.0037541358981331217 -0.07991186589859045 -8.536404416191745e-10
    endloop
  endfacet
  facet normal 0.0 0.0 0.0
    outer loop
      vertex 0.004071777633210132 -0.07989618749282869 -0.014296105284792783
      vertex 0.00432885532714934 -0.07988267583511384 -0.014122219939333797
      vertex 0.0037541358981331217 -0.07991186589859045 -8.536404416191745e-10
    endloop
  endfacet
  facet normal 0.0 0.0 0.0
    outer loop
      vertex 0.003806463054200124 -0.07990927953384432 -0.014460335631472473
      vertex 0.004071777633210132 -0.07989618749282869 -0.014296105284792783
      vertex 0.0037541358981331217 -0.07991186589859045 -8.536404416191745e-10
    endloop
  endfacet
  facet normal 0.0 0.0 0.0
    outer loop
      vertex 0.0035335808310708525 -0.07992185277603181 -0.014614186186892397
      vertex 0.003806463054200124 -0.07990927953384432 -0.014460335631472473
      vertex 0.0037541358981331217 -0.07991186589859045 -8.536404416191745e-10
    endloop
  endfacet
  facet normal 0.0 0.0 0.0
    outer loop
      vertex 0.0032537999663552774 -0.07993376989028962 -0.014756913085085758
      vertex 0.0035335808310708525 -0.07992185277603181 -0.014614186186892397
      vertex 0.0037541358981331217 -0.07991186589859045 -8.536404416191745e-10
    endloop
  endfacet
  facet normal 0.0 0.0 0.0
    outer loop
      vertex 0.002967788508912041 -0.07994493169448884 -0.01488779153357209
      vertex 0.0032537999663552774 -0.07993376989028962 -0.014756913085085758
      vertex 0.0037541358981331217 -0.07991186589859045 -8.536404416191745e-10
    endloop
  endfacet
  facet normal 0.0 0.0 0.0
    outer loop
      vertex 0.002676230720063165 -0.07995520085952791 -0.01500612344275178
      vertex 0.002967788508912041 -0.07994493169448884 -0.01488779153357209
      vertex 0.0037541358981331217 -0.07991186589859045 -8.536404416191745e-10
    endloop
  endfacet
  facet normal 0.0 0.0 0.0
    outer loop
      vertex 0.0023799946818551577 -0.07996448583267243 -0.015111657042605297
      vertex 0.002676230720063165 -0.07995520085952791 -0.01500612344275178
      vertex 0.0037541358981331217 -0.07991186589859045 -8.536404416191745e-10
    endloop
  endfacet
  facet normal 0.0 0.0 0.0
    outer loop
      vertex 0.002080071023484187 -0.07997274846694978 -0.015204426665408033
      vertex 0.0023799946818551577 -0.07996448583267243 -0.015111657042605297
      vertex 0.0037541358981331217 -0.07991186589859045 -8.536404416191745e-10
    endloop
  endfacet
  facet normal 0.0 0.0 0.0
    outer loop
      vertex 0.002080071023484187 -0.07997274846694978 -0.015204426665408033
      vertex 0.0037541358981331217 -0.07991186589859045 -8.536404416191745e-10
      vertex -1.1126169602945449e-12 -0.08000000066421545 -8.536404697195497e-10
    endloop
  endfacet
  facet normal 0.0 0.0 0.0
    outer loop
      vertex 0.0017774522814950518 -0.07997996587417634 -0.01528447427282991
      vertex 0.002080071023484187 -0.07997274846694978 -0.015204426665408033
      vertex -1.1126169602945449e-12 -0.08000000066421545 -8.536404697195497e-10
    endloop
  endfacet
  facet normal 0.0 0.0 0.0
    outer loop
      vertex 0.0014731309924325522 -0.07998611516616853 -0.015351841826540851
      vertex 0.0017774522814950518 -0.07997996587417634 -0.01528447427282991
      vertex -1.1126169602945449e-12 -0.08000000066421545 -8.536404697195497e-10
    endloop
  endfacet
  facet normal 0.0 0.0 0.0
    outer loop
      vertex 0.0011681000504693568 -0.07999117345474276 -0.01540656747351351
      vertex 0.0014731309924325522 -0.07998611516616853 -0.015351841826540851
      vertex -1.1126169602945449e-12 -0.08000000066421545 -8.536404697195497e-10
    endloop
  endfacet
  facet normal 0.0 0.0 0.0
    outer loop
      vertex 0.0008633518133363311 -0.07999511785171541 -0.015448693175417806
      vertex 0.0011681000504693568 -0.07999117345474276 -0.01540656747351351
      vertex -1.1126169602945449e-12 -0.08000000066421545 -8.536404697195497e-10
    endloop
  endfacet
  facet normal 0.0 0.0 0.0
    outer loop
      vertex 0.0005598791752061433 -0.07999791021011385 -0.015478264708620935
      vertex 0.0008633518133363311 -0.07999511785171541 -0.015448693175417806
      vertex -1.1126169602945449e-12 -0.08000000066421545 -8.536404697195497e-10
    endloop
  endfacet
  facet normal 0.0 0.0 0.0
    outer loop
      vertex 0.00025867473222823824 -0.07999955052993807 -0.015495316405398281
      vertex 0.0005598791752061433 -0.07999791021011385 -0.015478264708620935
      vertex -1.1126169602945449e-12 -0.08000000066421545 -8.536404697195497e-10
    endloop
  endfacet
  facet normal 0.0 0.0 0.0
    outer loop
      vertex -3.934136703101907e-05 -0.07999999303482087 -0.015499890227419768
      vertex 0.00025867473222823824 -0.07999955052993807 -0.015495316405398281
      vertex -1.1126169602945449e-12 -0.08000000066421545 -8.536404697195497e-10
    endloop
  endfacet
  facet normal 0.0 0.0 0.0
    outer loop
      vertex -0.0003382461454668454 -0.07999923009536775 -0.015492012877566253
      vertex -3.934136703101907e-05 -0.07999999303482087 -0.015499890227419768
      vertex -1.1126169602945449e-12 -0.08000000066421545 -8.536404697195497e-10
    endloop
  endfacet
  facet normal 0.0 0.0 0.0
    outer loop
      vertex -0.0006401485886373931 -0.07999728459976228 -0.015471646208865085
      vertex -0.0003382461454668454 -0.07999923009536775 -0.015492012877566253
      vertex -1.1126169602945449e-12 -0.08000000066421545 -8.536404697195497e-10
    endloop
  endfacet
  facet normal 0.0 0.0 0.0
    outer loop
      vertex -0.0009440561022558626 -0.07999417943618806 -0.015438752074343602
      vertex -0.0006401485886373931 -0.07999728459976228 -0.015471646208865085
      vertex -1.1126169602945449e-12 -0.08000000066421545 -8.536404697195497e-10
    endloop
  endfacet
  facet normal 0.0 0.0 0.0
    outer loop
      vertex -0.0012489759411611976 -0.07998993749282869 -0.015393288512331885
      vertex -0.0009440561022558626 -0.07999417943618806 -0.015438752074343602
      vertex -1.1126169602945449e-12 -0.08000000066421545 -8.536404697195497e-10
    endloop
  endfacet
  facet normal 0.0 0.0 0.0
    outer loop
      vertex -0.0015539154495993084 -0.07998458928726228 -0.015335213561160013
      vertex -0.0012489759411611976 -0.07998993749282869 -0.015393288512331885
      vertex -1.1126169602945449e-12 -0.08000000066421545 -8.536404697195497e-10
    endloop
  endfacet
  facet normal 0.0 0.0 0.0
    outer loop
      vertex -0.0018578820910253953 -0.07997815770767244 -0.015264489073855329
      vertex -0.0015539154495993084 -0.07998458928726228 -0.015335213561160013
      vertex -1.1126169602945449e-12 -0.08000000066421545 -8.536404697195497e-10
    endloop
  endfacet
  facet normal 0.0 0.0 0.0
    outer loop
      vertex -0.002159883209685369 -0.07997065801284822 -0.015181073088747908
      vertex -1.1126169602945449e-12 -0.08000000066421545 -8.536404697195497e-10
      vertex -0.003754135796050228 -0.07991186589859045 -8.536404973241525e-10
    endloop
  endfacet
  facet normal 0.0 0.0 0.0
    outer loop
      vertex -0.002159883209685369 -0.07997065801284822 -0.015181073088747908
      vertex -0.0018578820910253953 -0.07997815770767244 -0.015264489073855329
      vertex -1.1126169602945449e-12 -0.08000000066421545 -8.536404697195497e-10
    endloop
  endfacet
  facet normal 0.0 0.0 0.0
    outer loop
      vertex -0.002458925911406561 -0.07996212072036775 -0.015084927458865097
      vertex -0.002159883209685369 -0.07997065801284822 -0.015181073088747908
      vertex -0.003754135796050228 -0.07991186589859045 -8.536404973241525e-10
    endloop
  endfacet
  facet normal 0.0 0.0 0.0
    outer loop
      vertex -0.0027540177788534614 -0.07995257634780915 -0.014976002593142445
      vertex -0.002458925911406561 -0.07996212072036775 -0.015084927458865097
      vertex -0.003754135796050228 -0.07991186589859045 -8.536404973241525e-10
    endloop
  endfacet
  facet normal 0.0 0.0 0.0
    outer loop
      vertex -0.0030441784348288043 -0.07994205541275057 -0.01485429467688268
      vertex -0.0027540177788534614 -0.07995257634780915 -0.014976002593142445
      vertex -0.003754135796050228 -0.07991186589859045 -8.536404973241525e-10
    endloop
  endfacet
  facet normal 0.0 0.0 0.0
    outer loop
      vertex -0.0033286032166281215 -0.07993067998550447 -0.014720200438601432
      vertex -0.0030441784348288043 -0.07994205541275057 -0.01485429467688268
      vertex -0.003754135796050228 -0.07991186589859045 -8.536404973241525e-10
    endloop
  endfacet
  facet normal 0.0 0.0 0.0
    outer loop
      vertex -0.0036066204991140847 -0.0799185797657779 -0.0145744523001737
      vertex -0.0033286032166281215 -0.07993067998550447 -0.014720200438601432
      vertex -0.003754135796050228 -0.07991186589859045 -8.536404973241525e-10
    endloop
  endfacet
  facet normal 0.0 0.0 0.0
    outer loop
      vertex -0.003877561518172313 -0.07990586156509431 -0.014417782683474482
      vertex -0.0036066204991140847 -0.0799185797657779 -0.0145744523001737
      vertex -0.003754135796050228 -0.07991186589859045 -8.536404973241525e-10
    endloop
  endfacet
  facet normal 0.0 0.0 0.0
    outer loop
      vertex -0.004140757748107006 -0.07989263982437166 -0.014250916380984248
      vertex -0.003877561518172313 -0.07990586156509431 -0.014417782683474482
      vertex -0.003754135796050228 -0.07991186589859045 -8.536404973241525e-10
    endloop
  endfacet
  facet normal 0.0 0.0 0.0
    outer loop
      vertex -0.004395540424803785 -0.07987903661392244 -0.014074597258669797
      vertex -0.004140757748107006 -0.07989263982437166 -0.014250916380984248
      vertex -0.003754135796050228 -0.07991186589859045 -8.536404973241525e-10
    endloop
  endfacet
  facet normal 0.0 0.0 0.0
    outer loop
      vertex -0.0046412407841482685 -0.07986516637466462 -0.013889553923708862
      vertex -0.004395540424803785 -0.07987903661392244 -0.014074597258669797
      vertex -0.003754135796050228 -0.07991186589859045 -8.536404973241525e-10
    endloop
  endfacet
  facet normal 0.0 0.0 0.0
    outer loop
      vertex -0.004877190300444657 -0.07985114354751618 -0.013696514983279177
      vertex -0.0046412407841482685 -0.07986516637466462 -0.013889553923708862
      vertex -0.003754135796050228 -0.07991186589859045 -8.536404973241525e-10
    endloop
  endfacet
  facet normal 0.0 0.0 0.0
    outer loop
      vertex -0.0051027199711599905 -0.0798370825733951 -0.013496220488650271
      vertex -0.004877190300444657 -0.07985114354751618 -0.013696514983279177
      vertex -0.003754135796050228 -0.07991186589859045 -8.536404973241525e-10
    endloop
  endfacet
  facet normal 0.0 0.0 0.0
    outer loop
      vertex -0.005317174622038898 -0.07982310552261385 -0.013289387602908086
      vertex -0.0051027199711599905 -0.0798370825733951 -0.013496220488650271
      vertex -0.003754135796050228 -0.07991186589859045 -8.536404973241525e-10
    endloop
  endfacet
  facet normal 0.0 0.0 0.0
    outer loop
      vertex -0.005523171135405599 -0.07980909795425446 -0.013073437590701056
      vertex -0.005317174622038898 -0.07982310552261385 -0.013289387602908086
      vertex -0.003754135796050228 -0.07991186589859045 -8.536404973241525e-10
    endloop
  endfacet
  facet normal 0.0 0.0 0.0
    outer loop
      vertex -0.005722545811156334 -0.07979502935073884 -0.01284648980627723
      vertex -0.005523171135405599 -0.07980909795425446 -0.013073437590701056
      vertex -0.003754135796050228 -0.07991186589859045 -8.536404973241525e-10
    endloop
  endfacet
  facet normal 0.0 0.0 0.0
    outer loop
      vertex -0.007500000187377072 -0.07964765996597323 -0.008000000853640523
      vertex -0.003754135796050228 -0.07991186589859045 -8.536404973241525e-10
      vertex -0.007500000187377132 -0.07964765996597326 -8.536405243721752e-10
    endloop
  endfacet
  facet normal 0.0 0.0 0.0
    outer loop
      vertex -0.005914564320067468 -0.07978100652359041 -0.012609208006960826
      vertex -0.005722545811156334 -0.07979502935073884 -0.01284648980627723
      vertex -0.003754135796050228 -0.07991186589859045 -8.536404973241525e-10
    endloop
  endfacet
  facet normal 0.0 0.0 0.0
    outer loop
      vertex -0.006098494240264003 -0.07976715154312165 -0.012362267394167856
      vertex -0.005914564320067468 -0.07978100652359041 -0.012609208006960826
      vertex -0.003754135796050228 -0.07991186589859045 -8.536404973241525e-10
    endloop
  endfacet
  facet normal 0.0 0.0 0.0
    outer loop
      vertex -0.007475064465025993 -0.07965006322525058 -0.008599995513064352
      vertex -0.007500000187377072 -0.07964765996597323 -0.008000000853640523
      vertex -0.007493772694090938 -0.07964826268814121 -0.008298432250124898
    endloop
  endfacet
  facet normal 0.0 0.0 0.0
    outer loop
      vertex -0.006273602196196622 -0.07975357122085605 -0.012106331725222547
      vertex -0.003754135796050228 -0.07991186589859045 -8.536404973241525e-10
      vertex -0.007500000187377072 -0.07964765996597323 -0.008000000853640523
    endloop
  endfacet
  facet normal 0.0 0.0 0.0
    outer loop
      vertex -0.006273602196196622 -0.07975357122085605 -0.012106331725222547
      vertex -0.006098494240264003 -0.07976715154312165 -0.012362267394167856
      vertex -0.003754135796050228 -0.07991186589859045 -8.536404973241525e-10
    endloop
  endfacet
  facet normal 0.0 0.0 0.0
    outer loop
      vertex -0.007443833061675162 -0.07965303105972324 -0.008903691191775288
      vertex -0.007500000187377072 -0.07964765996597323 -0.008000000853640523
      vertex -0.007475064465025993 -0.07965006322525058 -0.008599995513064352
    endloop
  endfacet
  facet normal 0.0 0.0 0.0
    outer loop
      vertex -0.006439155289153167 -0.07974038762710604 -0.011842068572146376
      vertex -0.006273602196196622 -0.07975357122085605 -0.012106331725222547
      vertex -0.007500000187377072 -0.07964765996597323 -0.008000000853640523
    endloop
  endfacet
  facet normal 0.0 0.0 0.0
    outer loop
      vertex -0.007400038429717151 -0.07965713567398104 -0.009208535094363179
      vertex -0.007500000187377072 -0.07964765996597323 -0.008000000853640523
      vertex -0.007443833061675162 -0.07965303105972324 -0.008903691191775288
    endloop
  endfacet
  facet normal 0.0 0.0 0.0
    outer loop
      vertex -0.006594421097258637 -0.07972771520278964 -0.011570153136355362
      vertex -0.006439155289153167 -0.07974038762710604 -0.011842068572146376
      vertex -0.007500000187377072 -0.07964765996597323 -0.008000000853640523
    endloop
  endfacet
  facet normal 0.0 0.0 0.0
    outer loop
      vertex -0.007343639561156358 -0.07966236180923496 -0.00951352777014443
      vertex -0.007500000187377072 -0.07964765996597323 -0.008000000853640523
      vertex -0.007400038429717151 -0.07965713567398104 -0.009208535094363179
    endloop
  endfacet
  facet normal 0.0 0.0 0.0
    outer loop
      vertex -0.006738665291289402 -0.0797156683888248 -0.01129124917517372
      vertex -0.006594421097258637 -0.07972771520278964 -0.011570153136355362
      vertex -0.007500000187377072 -0.07964765996597323 -0.008000000853640523
    endloop
  endfacet
  facet normal 0.0 0.0 0.0
    outer loop
      vertex -0.0072745949711600175 -0.07966867894790683 -0.00981768121252724
      vertex -0.007500000187377072 -0.07964765996597323 -0.008000000853640523
      vertex -0.007343639561156358 -0.07966236180923496 -0.00951352777014443
    endloop
  endfacet
  facet normal 0.0 0.0 0.0
    outer loop
      vertex -0.007192864128569683 -0.07967606420181307 -0.010119995970828022
      vertex -0.007500000187377072 -0.07964765996597323 -0.008000000853640523
      vertex -0.0072745949711600175 -0.07966867894790683 -0.00981768121252724
    endloop
  endfacet
  facet normal 0.0 0.0 0.0
    outer loop
      vertex -0.006871155926207616 -0.07970436925552402 -0.011006024260622941
      vertex -0.006738665291289402 -0.0797156683888248 -0.01129124917517372
      vertex -0.007500000187377072 -0.07964765996597323 -0.008000000853640523
    endloop
  endfacet
  facet normal 0.0 0.0 0.0
    outer loop
      vertex -0.007098405548552592 -0.07968449468277011 -0.010419487853152241
      vertex -0.007500000187377072 -0.07964765996597323 -0.008000000853640523
      vertex -0.007192864128569683 -0.07967606420181307 -0.010119995970828022
    endloop
  endfacet
  facet normal 0.0 0.0 0.0
    outer loop
      vertex -0.006991178699950294 -0.0796939398731998 -0.010715161223513566
      vertex -0.006871155926207616 -0.07970436925552402 -0.011006024260622941
      vertex -0.007500000187377072 -0.07964765996597323 -0.008000000853640523
    endloop
  endfacet
  facet normal 0.0 0.0 0.0
    outer loop
      vertex -0.006991178699950294 -0.0796939398731998 -0.010715161223513566
      vertex -0.007500000187377072 -0.07964765996597323 -0.008000000853640523
      vertex -0.007098405548552592 -0.07968449468277011 -0.010419487853152241
    endloop
  endfacet
  facet normal 0.0 0.0 0.0
    outer loop
      vertex 0.007493775180359747 -0.07663449926040683 -0.008298375029665796
      vertex 0.007475074103852181 -0.07663636846206698 -0.008599877257448998
      vertex 0.007499999812622928 -0.07663386602066075 -0.008000000853640405
    endloop
  endfacet
  facet normal 0.0 0.0 0.0
    outer loop
      vertex 0.007475074103852181 -0.07663636846206698 -0.008599877257448998
      vertex 0.007443855575104625 -0.07663944310806307 -0.008903511901003686
      vertex 0.007499999812622928 -0.07663386602066075 -0.008000000853640405
    endloop
  endfacet
  facet normal 0.0 0.0 0.0
    outer loop
      vertex 0.007443855575104625 -0.07663944310806307 -0.008903511901003686
      vertex 0.007400079062958631 -0.07664371556900057 -0.009208287139040795
      vertex 0.007499999812622928 -0.07663386602066075 -0.008000000853640405
    endloop
  endfacet
  facet normal 0.0 0.0 0.0
    outer loop
      vertex 0.007400079062958631 -0.07664371556900057 -0.009208287139040795
      vertex 0.007343703559418594 -0.0766491400685123 -0.00951321496496853
      vertex 0.007499999812622928 -0.07663386602066075 -0.008000000853640405
    endloop
  endfacet
  facet normal 0.0 0.0 0.0
    outer loop
      vertex 0.007343703559418594 -0.0766491400685123 -0.00951321496496853
      vertex 0.007274688533326067 -0.0766557089772037 -0.009817299742800562
      vertex 0.007499999812622928 -0.07663386602066075 -0.008000000853640405
    endloop
  endfacet
  facet normal 0.0 0.0 0.0
    outer loop
      vertex 0.007499999812622928 -0.07663386602066075 -0.008000000853640405
      vertex 0.0037544656310280204 -0.0769084097828678 -8.536404331692794e-10
      vertex 0.007499999812622869 -0.07663386602066076 -8.53640404608432e-10
    endloop
  endfacet
  facet normal 0.0 0.0 0.0
    outer loop
      vertex 0.007274688533326067 -0.0766557089772037 -0.009817299742800562
      vertex 0.007192993453522603 -0.07666337651870761 -0.010119553465945093
      vertex 0.007499999812622928 -0.07663386602066075 -0.008000000853640405
    endloop
  endfacet
  facet normal 0.0 0.0 0.0
    outer loop
      vertex 0.007192993453522603 -0.07666337651870761 -0.010119553465945093
      vertex 0.007098577312012595 -0.07667213506362948 -0.010418980498415798
      vertex 0.007499999812622928 -0.07663386602066075 -0.008000000853640405
    endloop
  endfacet
  facet normal 0.0 0.0 0.0
    outer loop
      vertex 0.007098577312012595 -0.07667213506362948 -0.010418980498415798
      vertex 0.006991399577637598 -0.07668194646499667 -0.010714589018923611
      vertex 0.007499999812622928 -0.07663386602066075 -0.008000000853640405
    endloop
  endfacet
  facet normal 0.0 0.0 0.0
    outer loop
      vertex 0.006991399577637598 -0.07668194646499667 -0.010714589018923611
      vertex 0.0068714321170052755 -0.07669278783462558 -0.011005394835574002
      vertex 0.007499999812622928 -0.07663386602066075 -0.008000000853640405
    endloop
  endfacet
  facet normal 0.0 0.0 0.0
    outer loop
      vertex 0.0068714321170052755 -0.07669278783462558 -0.011005394835574002
      vertex 0.006739002517243314 -0.07670452184341464 -0.011290562529665801
      vertex 0.007499999812622928 -0.07663386602066075 -0.008000000853640405
    endloop
  endfacet
  facet normal 0.0 0.0 0.0
    outer loop
      vertex 0.006739002517243314 -0.07670452184341464 -0.011290562529665801
      vertex 0.006594823649903229 -0.07671703405044589 -0.011569413085085722
      vertex 0.007499999812622928 -0.07663386602066075 -0.008000000853640405
    endloop
  endfacet
  facet normal 0.0 0.0 0.0
    outer loop
      vertex 0.006594823649903229 -0.07671703405044589 -0.011569413085085722
      vertex 0.006439628413697176 -0.0767301947560123 -0.011841278929812286
      vertex 0.007499999812622928 -0.07663386602066075 -0.008000000853640405
    endloop
  endfacet
  facet normal 0.0 0.0 0.0
    outer loop
      vertex 0.006439628413697176 -0.0767301947560123 -0.011841278929812286
      vertex 0.00627414827682584 -0.07674388951919589 -0.012105496306521274
      vertex 0.007499999812622928 -0.07663386602066075 -0.008000000853640405
    endloop
  endfacet
  facet normal 0.0 0.0 0.0
    outer loop
      vertex 0.007499999812622928 -0.07663386602066075 -0.008000000853640405
      vertex 0.00627414827682584 -0.07674388951919589 -0.012105496306521274
      vertex 0.0037544656310280204 -0.0769084097828678 -8.536404331692794e-10
    endloop
  endfacet
  facet normal 0.0 0.0 0.0
    outer loop
      vertex 0.00627414827682584 -0.07674388951919589 -0.012105496306521274
      vertex 0.006099117091675695 -0.07675799626968417 -0.012361393828493933
      vertex 0.0037544656310280204 -0.0769084097828678 -8.536404331692794e-10
    endloop
  endfacet
  facet normal 0.0 0.0 0.0
    outer loop
      vertex 0.006099117091675695 -0.07675799626968417 -0.012361393828493933
      vertex 0.005915266326447425 -0.07677239293716463 -0.012608303923708776
      vertex 0.0037544656310280204 -0.0769084097828678 -8.536404331692794e-10
    endloop
  endfacet
  facet normal 0.0 0.0 0.0
    outer loop
      vertex 0.005915266326447425 -0.07677239293716463 -0.012608303923708776
      vertex 0.0057233293566903475 -0.07678696508071933 -0.012845559020144325
      vertex 0.0037544656310280204 -0.0769084097828678 -8.536404331692794e-10
    endloop
  endfacet
  facet normal 0.0 0.0 0.0
    outer loop
      vertex 0.0057233293566903475 -0.07678696508071933 -0.012845559020144325
      vertex 0.005524038127442302 -0.07680158300064119 -0.013072491545779092
      vertex 0.0037544656310280204 -0.0769084097828678 -8.536404331692794e-10
    endloop
  endfacet
  facet normal 0.0 0.0 0.0
    outer loop
      vertex 0.005524038127442302 -0.07680158300064119 -0.013072491545779092
      vertex 0.005318125537415448 -0.07681612462661774 -0.013288433928591595
      vertex 0.0037544656310280204 -0.0769084097828678 -8.536404331692794e-10
    endloop
  endfacet
  facet normal 0.0 0.0 0.0
    outer loop
      vertex 0.005318125537415448 -0.07681612462661774 -0.013288433928591595
      vertex 0.005103781512757247 -0.07683065099380525 -0.013495240111452924
      vertex 0.0037544656310280204 -0.0769084097828678 -8.536404331692794e-10
    endloop
  endfacet
  facet normal 0.0 0.0 0.0
    outer loop
      vertex 0.005103781512757247 -0.07683065099380525 -0.013495240111452924
      vertex 0.004878366759797042 -0.0768452612843326 -0.013695511717898238
      vertex 0.0037544656310280204 -0.0769084097828678 -8.536404331692794e-10
    endloop
  endfacet
  facet normal 0.0 0.0 0.0
    outer loop
      vertex 0.004878366759797042 -0.0768452612843326 -0.013695511717898238
      vertex 0.004642533591767259 -0.07685982579849275 -0.01388853921423613
      vertex 0.0037544656310280204 -0.0769084097828678 -8.536404331692794e-10
    endloop
  endfacet
  facet normal 0.0 0.0 0.0
    outer loop
      vertex 0.004642533591767259 -0.07685982579849275 -0.01388853921423613
      vertex 0.004396950534363697 -0.07687423772476228 -0.014073578734499805
      vertex 0.0037544656310280204 -0.0769084097828678 -8.536404331692794e-10
    endloop
  endfacet
  facet normal 0.0 0.0 0.0
    outer loop
      vertex 0.004396950534363697 -0.07687423772476228 -0.014073578734499805
      vertex 0.004142285159607838 -0.07688836736343416 -0.01424990548620879
      vertex 0.0037544656310280204 -0.0769084097828678 -8.536404331692794e-10
    endloop
  endfacet
  facet normal 0.0 0.0 0.0
    outer loop
      vertex 0.004142285159607838 -0.07688836736343416 -0.01424990548620879
      vertex 0.003879206231614065 -0.0769021002735904 -0.014416783232790824
      vertex 0.0037544656310280204 -0.0769084097828678 -8.536404331692794e-10
    endloop
  endfacet
  facet normal 0.0 0.0 0.0
    outer loop
      vertex 0.003879206231614065 -0.0769021002735904 -0.014416783232790824
      vertex 0.003608380845566702 -0.07691532201431306 -0.01457348336706817
      vertex 0.0037544656310280204 -0.0769084097828678 -8.536404331692794e-10
    endloop
  endfacet
  facet normal 0.0 0.0 0.0
    outer loop
      vertex 0.003608380845566702 -0.07691532201431306 -0.01457348336706817
      vertex 0.0033304777655801315 -0.07692789525650057 -0.014719269652468562
      vertex 0.0037544656310280204 -0.0769084097828678 -8.536404331692794e-10
    endloop
  endfacet
  facet normal 0.0 0.0 0.0
    outer loop
      vertex 0.0033304777655801315 -0.07692789525650057 -0.014719269652468562
      vertex 0.0030461643252572565 -0.07693971318862947 -0.014853409667117
      vertex 0.0037544656310280204 -0.0769084097828678 -8.536404331692794e-10
    endloop
  endfacet
  facet normal 0.0 0.0 0.0
    outer loop
      vertex 0.0030461643252572565 -0.07693971318862947 -0.014853409667117
      vertex 0.0027561121497354066 -0.07695065374038729 -0.014975178618533019
      vertex 0.0037544656310280204 -0.0769084097828678 -8.536404331692794e-10
    endloop
  endfacet
  facet normal 0.0 0.0 0.0
    outer loop
      vertex 0.0027561121497354066 -0.07695065374038729 -0.014975178618533019
      vertex 0.0024611225638589427 -0.0769605719532779 -0.015084168334109194
      vertex 0.0037544656310280204 -0.0769084097828678 -8.536404331692794e-10
    endloop
  endfacet
  facet normal 0.0 0.0 0.0
    outer loop
      vertex 0.0024611225638589427 -0.0769605719532779 -0.015084168334109194
      vertex 0.0021621749911508135 -0.07696945256851229 -0.015180390257937321
      vertex 0.0037544656310280204 -0.0769084097828678 -8.536404331692794e-10
    endloop
  endfacet
  facet normal 0.0 0.0 0.0
    outer loop
      vertex 0.0037544656310280204 -0.0769084097828678 -8.536404331692794e-10
      vertex 0.0021621749911508135 -0.07696945256851229 -0.015180390257937321
      vertex -1.1126161129280655e-12 -0.07700000066421545 -8.536404612818215e-10
    endloop
  endfacet
  facet normal 0.0 0.0 0.0
    outer loop
      vertex 0.0021621749911508135 -0.07696945256851229 -0.015180390257937321
      vertex 0.0018602617297372398 -0.07697724980972322 -0.015263886351687322
      vertex -1.1126161129280655e-12 -0.07700000066421545 -8.536404612818215e-10
    endloop
  endfacet
  facet normal 0.0 0.0 0.0
    outer loop
      vertex 0.0018602617297372398 -0.07697724980972322 -0.015263886351687322
      vertex 0.0015563743624887052 -0.07698394078872713 -0.015334694762331855
      vertex -1.1126161129280655e-12 -0.07700000066421545 -8.536404612818215e-10
    endloop
  endfacet
  facet normal 0.0 0.0 0.0
    outer loop
      vertex 0.0015563743624887052 -0.07698394078872713 -0.015334694762331855
      vertex 0.001251504949112851 -0.07698951024673494 -0.015392857451540844
      vertex -1.1126161129280655e-12 -0.07700000066421545 -8.536404612818215e-10
    endloop
  endfacet
  facet normal 0.0 0.0 0.0
    outer loop
      vertex 0.001251504949112851 -0.07698951024673494 -0.015392857451540844
      vertex 0.0009466453705033851 -0.076993920036774 -0.015438416380984204
      vertex -1.1126161129280655e-12 -0.07700000066421545 -8.536404612818215e-10
    endloop
  endfacet
  facet normal 0.0 0.0 0.0
    outer loop
      vertex 0.0009466453705033851 -0.076993920036774 -0.015438416380984204
      vertex 0.0006427875671586588 -0.07699715490005525 -0.015471413512331863
      vertex -1.1126161129280655e-12 -0.07700000066421545 -8.536404612818215e-10
    endloop
  endfacet
  facet normal 0.0 0.0 0.0
    outer loop
      vertex 0.0006427875671586588 -0.07699715490005525 -0.015471413512331863
      vertex 0.00034092350937934684 -0.07699918431900056 -0.015491886992556476
      vertex -1.1126161129280655e-12 -0.07700000066421545 -8.536404612818215e-10
    endloop
  endfacet
  facet normal 0.0 0.0 0.0
    outer loop
      vertex 0.00034092350937934684 -0.07699918431900056 -0.015491886992556476
      vertex 4.204514511438182e-05 -0.07699998540542634 -0.015499874968630695
      vertex -1.1126161129280655e-12 -0.07700000066421545 -8.536404612818215e-10
    endloop
  endfacet
  facet normal 0.0 0.0 0.0
    outer loop
      vertex 4.204514511438182e-05 -0.07699998540542634 -0.015499874968630695
      vertex -0.0002558895435133381 -0.07699954290054353 -0.015495415587527182
      vertex -1.1126161129280655e-12 -0.07700000066421545 -8.536404612818215e-10
    endloop
  endfacet
  facet normal 0.0 0.0 0.0
    outer loop
      vertex -0.0002558895435133381 -0.07699954290054353 -0.015495415587527182
      vertex -0.0005570082750120565 -0.07699785680435213 -0.015478482146365075
      vertex -1.1126161129280655e-12 -0.07700000066421545 -8.536404612818215e-10
    endloop
  endfacet
  facet normal 0.0 0.0 0.0
    outer loop
      vertex -0.0005570082750120565 -0.07699785680435213 -0.015478482146365075
      vertex -0.0008604018773832726 -0.07699495763443025 -0.015449040312868985
      vertex -1.1126161129280655e-12 -0.07700000066421545 -8.536404612818215e-10
    endloop
  endfacet
  facet normal 0.0 0.0 0.0
    outer loop
      vertex -0.0008604018773832726 -0.07699495763443025 -0.015449040312868985
      vertex -0.0011650783505239896 -0.07699087590835603 -0.015407044310671721
      vertex -1.1126161129280655e-12 -0.07700000066421545 -8.536404612818215e-10
    endloop
  endfacet
  facet normal 0.0 0.0 0.0
    outer loop
      vertex -0.0011650783505239896 -0.07699087590835603 -0.015407044310671721
      vertex -0.0014700456347265655 -0.07698563451431306 -0.015352455992800629
      vertex -1.1126161129280655e-12 -0.07700000066421545 -8.536404612818215e-10
    endloop
  endfacet
  facet normal 0.0 0.0 0.0
    outer loop
      vertex -0.0014700456347265655 -0.07698563451431306 -0.015352455992800629
      vertex -0.0017743120875158727 -0.07697925634048494 -0.015285237212283052
      vertex -1.1126161129280655e-12 -0.07700000066421545 -8.536404612818215e-10
    endloop
  endfacet
  facet normal 0.0 0.0 0.0
    outer loop
      vertex -1.1126161129280655e-12 -0.07700000066421545 -8.536404612818215e-10
      vertex -0.0020768854107656902 -0.07697177190444979 -0.01520533837805454
      vertex -0.003754465767363703 -0.0769084097828678 -8.536404888791519e-10
    endloop
  endfacet
  facet normal 0.0 0.0 0.0
    outer loop
      vertex -0.0017743120875158727 -0.07697925634048494 -0.015285237212283052
      vertex -0.0020768854107656902 -0.07697177190444979 -0.01520533837805454
      vertex -1.1126161129280655e-12 -0.07700000066421545 -8.536404612818215e-10
    endloop
  endfacet
  facet normal 0.0 0.0 0.0
    outer loop
      vertex -0.0020768854107656902 -0.07697177190444979 -0.01520533837805454
      vertex -0.002376774021605535 -0.07696319646499665 -0.015112725157839698
      vertex -0.003754465767363703 -0.0769084097828678 -8.536404888791519e-10
    endloop
  endfacet
  facet normal 0.0 0.0 0.0
    outer loop
      vertex -0.002376774021605535 -0.07696319646499665 -0.015112725157839698
      vertex -0.002672985741118475 -0.07695356816909822 -0.015007359404665872
      vertex -0.003754465767363703 -0.0769084097828678 -8.536404888791519e-10
    endloop
  endfacet
  facet normal 0.0 0.0 0.0
    outer loop
      vertex -0.002672985741118475 -0.07695356816909822 -0.015007359404665872
      vertex -0.002964530655364081 -0.07694290990493806 -0.01488919915686314
      vertex -0.003754465767363703 -0.0769084097828678 -8.536404888791519e-10
    endloop
  endfacet
  facet normal 0.0 0.0 0.0
    outer loop
      vertex -0.002964530655364081 -0.07694290990493806 -0.01488919915686314
      vertex -0.0032505387749472117 -0.07693132848403962 -0.014758492369753767
      vertex -0.003754465767363703 -0.0769084097828678 -8.536404888791519e-10
    endloop
  endfacet
  facet normal 0.0 0.0 0.0
    outer loop
      vertex -0.0032505387749472117 -0.07693132848403962 -0.014758492369753767
      vertex -0.003530326076964425 -0.07691895360610994 -0.014615933318240097
      vertex -0.003754465767363703 -0.0769084097828678 -8.536404888791519e-10
    endloop
  endfacet
  facet normal 0.0 0.0 0.0
    outer loop
      vertex -0.003530326076964425 -0.07691895360610994 -0.014615933318240097
      vertex -0.0038032247509756567 -0.0769059073414615 -0.014462250609499865
      vertex -0.003754465767363703 -0.0769084097828678 -8.536404888791519e-10
    endloop
  endfacet
  facet normal 0.0 0.0 0.0
    outer loop
      vertex -0.0038032247509756567 -0.0769059073414615 -0.014462250609499865
      vertex -0.0040685665097036855 -0.07689230413101228 -0.014298184294802601
      vertex -0.003754465767363703 -0.0769084097828678 -8.536404888791519e-10
    endloop
  endfacet
  facet normal 0.0 0.0 0.0
    outer loop
      vertex -0.0040685665097036855 -0.07689230413101228 -0.014298184294802601
      vertex -0.004325683781127026 -0.07687827367446931 -0.014124459166628774
      vertex -0.003754465767363703 -0.0769084097828678 -8.536404888791519e-10
    endloop
  endfacet
  facet normal 0.0 0.0 0.0
    outer loop
      vertex -0.004325683781127026 -0.07687827367446931 -0.014124459166628774
      vertex -0.00457390803954988 -0.07686393041275057 -0.013941811461550652
      vertex -0.003754465767363703 -0.0769084097828678 -8.536404888791519e-10
    endloop
  endfacet
  facet normal 0.0 0.0 0.0
    outer loop
      vertex -0.00457390803954988 -0.07686393041275057 -0.013941811461550652
      vertex -0.004812571712950759 -0.07684939641616853 -0.013750973601443232
      vertex -0.003754465767363703 -0.0769084097828678 -8.536404888791519e-10
    endloop
  endfacet
  facet normal 0.0 0.0 0.0
    outer loop
      vertex -0.004812571712950759 -0.07684939641616853 -0.013750973601443232
      vertex -0.005041006275633866 -0.0768347861256412 -0.01355268182287878
      vertex -0.003754465767363703 -0.0769084097828678 -8.536404888791519e-10
    endloop
  endfacet
  facet normal 0.0 0.0 0.0
    outer loop
      vertex -0.005041006275633866 -0.0768347861256412 -0.01355268182287878
      vertex -0.0052585446324148735 -0.07682022924087556 -0.013347660918337766
      vertex -0.003754465767363703 -0.0769084097828678 -8.536404888791519e-10
    endloop
  endfacet
  facet normal 0.0 0.0 0.0
    outer loop
      vertex -0.0052585446324148735 -0.07682022924087556 -0.013347660918337766
      vertex -0.005466332622984943 -0.07680571813247712 -0.013134823699099487
      vertex -0.003754465767363703 -0.0769084097828678 -8.536404888791519e-10
    endloop
  endfacet
  facet normal 0.0 0.0 0.0
    outer loop
      vertex -0.005466332622984943 -0.07680571813247712 -0.013134823699099487
      vertex -0.005667574593047201 -0.07679110784194979 -0.012910939116579957
      vertex -0.003754465767363703 -0.0769084097828678 -8.536404888791519e-10
    endloop
  endfacet
  facet normal 0.0 0.0 0.0
    outer loop
      vertex -0.003754465767363703 -0.0769084097828678 -8.536404888791519e-10
      vertex -0.007500000187377071 -0.07663386602066073 -0.008000000853640514
      vertex -0.007500000187377131 -0.07663386602066076 -8.536405158956504e-10
    endloop
  endfacet
  facet normal 0.0 0.0 0.0
    outer loop
      vertex -0.005667574593047201 -0.07679110784194979 -0.012910939116579957
      vertex -0.00586166972778231 -0.0767765128102115 -0.012676541228396364
      vertex -0.003754465767363703 -0.0769084097828678 -8.536404888791519e-10
    endloop
  endfacet
  facet normal 0.0 0.0 0.0
    outer loop
      vertex -0.007500000187377071 -0.07663386602066073 -0.008000000853640514
      vertex -0.007489744850615594 -0.07663490361831699 -0.008383530516726452
      vertex -0.007497438141326045 -0.07663412542007479 -0.008191048522097545
    endloop
  endfacet
  facet normal 0.0 0.0 0.0
    outer loop
      vertex -0.00586166972778231 -0.0767765128102115 -0.012676541228396364
      vertex -0.006047886082152429 -0.07676205510757478 -0.012432297606570194
      vertex -0.003754465767363703 -0.0769084097828678 -8.536404888791519e-10
    endloop
  endfacet
  facet normal 0.0 0.0 0.0
    outer loop
      vertex -0.007500000187377071 -0.07663386602066073 -0.008000000853640514
      vertex -0.007467500874022573 -0.07663711614273104 -0.008685738463503796
      vertex -0.007489744850615594 -0.07663490361831699 -0.008383530516726452
    endloop
  endfacet
  facet normal 0.0 0.0 0.0
    outer loop
      vertex -0.006047886082152429 -0.07676205510757478 -0.012432297606570194
      vertex -0.006225490757445399 -0.07674784917495761 -0.012178879637820194
      vertex -0.003754465767363703 -0.0769084097828678 -8.536404888791519e-10
    endloop
  endfacet
  facet normal 0.0 0.0 0.0
    outer loop
      vertex -0.007500000187377071 -0.07663386602066073 -0.008000000853640514
      vertex -0.007432728001097767 -0.07664053411148104 -0.008989796538454968
      vertex -0.007467500874022573 -0.07663711614273104 -0.008685738463503796
    endloop
  endfacet
  facet normal 0.0 0.0 0.0
    outer loop
      vertex -0.003754465767363703 -0.0769084097828678 -8.536404888791519e-10
      vertex -0.006393751331786221 -0.07673402471206699 -0.011916951079470585
      vertex -0.007500000187377071 -0.07663386602066073 -0.008000000853640514
    endloop
  endfacet
  facet normal 0.0 0.0 0.0
    outer loop
      vertex -0.006225490757445399 -0.07674784917495761 -0.012178879637820194
      vertex -0.006393751331786221 -0.07673402471206699 -0.011916951079470585
      vertex -0.003754465767363703 -0.0769084097828678 -8.536404888791519e-10
    endloop
  endfacet
  facet normal 0.0 0.0 0.0
    outer loop
      vertex -0.007500000187377071 -0.07663386602066073 -0.008000000853640514
      vertex -0.007385385700682726 -0.0766451346363834 -0.00929471673498817
      vertex -0.007432728001097767 -0.07664053411148104 -0.008989796538454968
    endloop
  endfacet
  facet normal 0.0 0.0 0.0
    outer loop
      vertex -0.006393751331786221 -0.07673402471206699 -0.011916951079470585
      vertex -0.006551935383299896 -0.07672070378921542 -0.011647183318240117
      vertex -0.007500000187377071 -0.07663386602066073 -0.008000000853640514
    endloop
  endfacet
  facet normal 0.0 0.0 0.0
    outer loop
      vertex -0.007500000187377071 -0.07663386602066073 -0.008000000853640514
      vertex -0.007325433441619003 -0.07665088719985995 -0.009599507231814342
      vertex -0.007385385700682726 -0.0766451346363834 -0.00929471673498817
    endloop
  endfacet
  facet normal 0.0 0.0 0.0
    outer loop
      vertex -0.006551935383299896 -0.07672070378921542 -0.011647183318240117
      vertex -0.006699310490111421 -0.07670799321792636 -0.011370243926150275
      vertex -0.007500000187377071 -0.07663386602066073 -0.008000000853640514
    endloop
  endfacet
  facet normal 0.0 0.0 0.0
    outer loop
      vertex -0.007500000187377071 -0.07663386602066073 -0.008000000853640514
      vertex -0.007252829739073834 -0.07665776891372714 -0.009903176207644419
      vertex -0.007325433441619003 -0.07665088719985995 -0.009599507231814342
    endloop
  endfacet
  facet normal 0.0 0.0 0.0
    outer loop
      vertex -0.006699310490111421 -0.07670799321792636 -0.011370243926150275
      vertex -0.00683514375350864 -0.07669602269790683 -0.011086800475222543
      vertex -0.007500000187377071 -0.07663386602066073 -0.008000000853640514
    endloop
  endfacet
  facet normal 0.0 0.0 0.0
    outer loop
      vertex -0.007500000187377071 -0.07663386602066073 -0.008000000853640514
      vertex -0.007167534061888774 -0.07666574926040683 -0.010204728026492076
      vertex -0.007252829739073834 -0.07665776891372714 -0.009903176207644419
    endloop
  endfacet
  facet normal 0.0 0.0 0.0
    outer loop
      vertex -0.00683514375350864 -0.07669602269790683 -0.011086800475222543
      vertex -0.006958704658965186 -0.07668491429946933 -0.010797520537478402
      vertex -0.007500000187377071 -0.07663386602066073 -0.008000000853640514
    endloop
  endfacet
  facet normal 0.0 0.0 0.0
    outer loop
      vertex -0.006958704658965186 -0.07668491429946933 -0.010797520537478402
      vertex -0.007069505878905373 -0.07667481298110995 -0.010503170867068248
      vertex -0.007500000187377071 -0.07663386602066073 -0.008000000853640514
    endloop
  endfacet
  facet normal 0.0 0.0 0.0
    outer loop
      vertex -0.007500000187377071 -0.07663386602066073 -0.008000000853640514
      vertex -0.007069505878905373 -0.07667481298110995 -0.010503170867068248
      vertex -0.007167534061888774 -0.07666574926040683 -0.010204728026492076
    endloop
  endfacet
  facet normal 0.0 0.0 0.0
    outer loop
      vertex -0.007500000187377072 -0.07964765996597323 -0.008000000853640523
      vertex -0.007500000187377132 -0.07964765996597326 -8.536405243721752e-10
      vertex -0.007500000187377131 -0.07663386602066076 -8.536405158956504e-10
    endloop
  endfacet
  facet normal 0.0 0.0 0.0
    outer loop
      vertex -0.007500000187377072 -0.07964765996597323 -0.008000000853640523
      vertex -0.007500000187377131 -0.07663386602066076 -8.536405158956504e-10
      vertex -0.007500000187377071 -0.07663386602066073 -0.008000000853640514
    endloop
  endfacet
  facet normal 0.0 0.0 0.0
    outer loop
      vertex 0.0037544656310280204 -0.0769084097828678 -8.536404331692794e-10
      vertex 0.0074999998126228686 -0.07964765996597326 -8.536404130849568e-10
      vertex 0.007499999812622869 -0.07663386602066076 -8.53640404608432e-10
    endloop
  endfacet
  facet normal 0.0 0.0 0.0
    outer loop
      vertex 0.0037541358981331217 -0.07991186589859045 -8.536404416191745e-10
      vertex 0.0074999998126228686 -0.07964765996597326 -8.536404130849568e-10
      vertex 0.0037544656310280204 -0.0769084097828678 -8.536404331692794e-10
    endloop
  endfacet
  facet normal 0.0 0.0 0.0
    outer loop
      vertex -1.1126161129280655e-12 -0.07700000066421545 -8.536404612818215e-10
      vertex 0.0037541358981331217 -0.07991186589859045 -8.536404416191745e-10
      vertex 0.0037544656310280204 -0.0769084097828678 -8.536404331692794e-10
    endloop
  endfacet
  facet normal 0.0 0.0 0.0
    outer loop
      vertex -1.1126169602945449e-12 -0.08000000066421545 -8.536404697195497e-10
      vertex 0.0037541358981331217 -0.07991186589859045 -8.536404416191745e-10
      vertex -1.1126161129280655e-12 -0.07700000066421545 -8.536404612818215e-10
    endloop
  endfacet
  facet normal 0.0 0.0 0.0
    outer loop
      vertex -0.003754135796050228 -0.07991186589859045 -8.536404973241525e-10
      vertex -1.1126161129280655e-12 -0.07700000066421545 -8.536404612818215e-10
      vertex -0.003754465767363703 -0.0769084097828678 -8.536404888791519e-10
    endloop
  endfacet
  facet normal 0.0 0.0 0.0
    outer loop
      vertex -0.003754135796050228 -0.07991186589859045 -8.536404973241525e-10
      vertex -1.1126169602945449e-12 -0.08000000066421545 -8.536404697195497e-10
      vertex -1.1126161129280655e-12 -0.07700000066421545 -8.536404612818215e-10
    endloop
  endfacet
  facet normal 0.0 0.0 0.0
    outer loop
      vertex -0.007500000187377132 -0.07964765996597326 -8.536405243721752e-10
      vertex -0.003754465767363703 -0.0769084097828678 -8.536404888791519e-10
      vertex -0.007500000187377131 -0.07663386602066076 -8.536405158956504e-10
    endloop
  endfacet
  facet normal 0.0 0.0 0.0
    outer loop
      vertex -0.007500000187377132 -0.07964765996597326 -8.536405243721752e-10
      vertex -0.003754135796050228 -0.07991186589859045 -8.536404973241525e-10
      vertex -0.003754465767363703 -0.0769084097828678 -8.536404888791519e-10
    endloop
  endfacet
  facet normal 0.0 0.0 0.0
    outer loop
      vertex -0.007500000187377072 -0.07964765996597323 -0.008000000853640523
      vertex -0.007500000187377071 -0.07663386602066073 -0.008000000853640514
      vertex -0.007497438141326045 -0.07663412542007479 -0.008191048522097545
    endloop
  endfacet
  facet normal 0.0 0.0 0.0
    outer loop
      vertex -0.007493772694090938 -0.07964826268814121 -0.008298432250124898
      vertex -0.007497438141326045 -0.07663412542007479 -0.008191048522097545
      vertex -0.007489744850615594 -0.07663490361831699 -0.008383530516726452
    endloop
  endfacet
  facet normal 0.0 0.0 0.0
    outer loop
      vertex -0.007493772694090938 -0.07964826268814121 -0.008298432250124898
      vertex -0.007500000187377072 -0.07964765996597323 -0.008000000853640523
      vertex -0.007497438141326045 -0.07663412542007479 -0.008191048522097545
    endloop
  endfacet
  facet normal 0.0 0.0 0.0
    outer loop
      vertex -0.007475064465025993 -0.07965006322525058 -0.008599995513064352
      vertex -0.007489744850615594 -0.07663490361831699 -0.008383530516726452
      vertex -0.007467500874022573 -0.07663711614273104 -0.008685738463503796
    endloop
  endfacet
  facet normal 0.0 0.0 0.0
    outer loop
      vertex -0.007475064465025993 -0.07965006322525058 -0.008599995513064352
      vertex -0.007493772694090938 -0.07964826268814121 -0.008298432250124898
      vertex -0.007489744850615594 -0.07663490361831699 -0.008383530516726452
    endloop
  endfacet
  facet normal 0.0 0.0 0.0
    outer loop
      vertex -0.007443833061675162 -0.07965303105972324 -0.008903691191775288
      vertex -0.007467500874022573 -0.07663711614273104 -0.008685738463503796
      vertex -0.007432728001097767 -0.07664053411148104 -0.008989796538454968
    endloop
  endfacet
  facet normal 0.0 0.0 0.0
    outer loop
      vertex -0.007443833061675162 -0.07965303105972324 -0.008903691191775288
      vertex -0.007475064465025993 -0.07965006322525058 -0.008599995513064352
      vertex -0.007467500874022573 -0.07663711614273104 -0.008685738463503796
    endloop
  endfacet
  facet normal 0.0 0.0 0.0
    outer loop
      vertex -0.007400038429717151 -0.07965713567398104 -0.009208535094363179
      vertex -0.007432728001097767 -0.07664053411148104 -0.008989796538454968
      vertex -0.007385385700682726 -0.0766451346363834 -0.00929471673498817
    endloop
  endfacet
  facet normal 0.0 0.0 0.0
    outer loop
      vertex -0.007400038429717151 -0.07965713567398104 -0.009208535094363179
      vertex -0.007443833061675162 -0.07965303105972324 -0.008903691191775288
      vertex -0.007432728001097767 -0.07664053411148104 -0.008989796538454968
    endloop
  endfacet
  facet normal 0.0 0.0 0.0
    outer loop
      vertex -0.007343639561156358 -0.07966236180923496 -0.00951352777014443
      vertex -0.007385385700682726 -0.0766451346363834 -0.00929471673498817
      vertex -0.007325433441619003 -0.07665088719985995 -0.009599507231814342
    endloop
  endfacet
  facet normal 0.0 0.0 0.0
    outer loop
      vertex -0.007343639561156358 -0.07966236180923496 -0.00951352777014443
      vertex -0.007400038429717151 -0.07965713567398104 -0.009208535094363179
      vertex -0.007385385700682726 -0.0766451346363834 -0.00929471673498817
    endloop
  endfacet
  facet normal 0.0 0.0 0.0
    outer loop
      vertex -0.0072745949711600175 -0.07966867894790683 -0.00981768121252724
      vertex -0.007325433441619003 -0.07665088719985995 -0.009599507231814342
      vertex -0.007252829739073834 -0.07665776891372714 -0.009903176207644419
    endloop
  endfacet
  facet normal 0.0 0.0 0.0
    outer loop
      vertex -0.0072745949711600175 -0.07966867894790683 -0.00981768121252724
      vertex -0.007343639561156358 -0.07966236180923496 -0.00951352777014443
      vertex -0.007325433441619003 -0.07665088719985995 -0.009599507231814342
    endloop
  endfacet
  facet normal 0.0 0.0 0.0
    outer loop
      vertex -0.007192864128569683 -0.07967606420181307 -0.010119995970828022
      vertex -0.007252829739073834 -0.07665776891372714 -0.009903176207644419
      vertex -0.007167534061888774 -0.07666574926040683 -0.010204728026492076
    endloop
  endfacet
  facet normal 0.0 0.0 0.0
    outer loop
      vertex -0.007192864128569683 -0.07967606420181307 -0.010119995970828022
      vertex -0.0072745949711600175 -0.07966867894790683 -0.00981768121252724
      vertex -0.007252829739073834 -0.07665776891372714 -0.009903176207644419
    endloop
  endfacet
  facet normal 0.0 0.0 0.0
    outer loop
      vertex -0.007098405548552592 -0.07968449468277011 -0.010419487853152241
      vertex -0.007167534061888774 -0.07666574926040683 -0.010204728026492076
      vertex -0.007069505878905373 -0.07667481298110995 -0.010503170867068248
    endloop
  endfacet
  facet normal 0.0 0.0 0.0
    outer loop
      vertex -0.007098405548552592 -0.07968449468277011 -0.010419487853152241
      vertex -0.007192864128569683 -0.07967606420181307 -0.010119995970828022
      vertex -0.007167534061888774 -0.07666574926040683 -0.010204728026492076
    endloop
  endfacet
  facet normal 0.0 0.0 0.0
    outer loop
      vertex -0.006991178699950294 -0.0796939398731998 -0.010715161223513566
      vertex -0.007069505878905373 -0.07667481298110995 -0.010503170867068248
      vertex -0.006958704658965186 -0.07668491429946933 -0.010797520537478402
    endloop
  endfacet
  facet normal 0.0 0.0 0.0
    outer loop
      vertex -0.006991178699950294 -0.0796939398731998 -0.010715161223513566
      vertex -0.007098405548552592 -0.07968449468277011 -0.010419487853152241
      vertex -0.007069505878905373 -0.07667481298110995 -0.010503170867068248
    endloop
  endfacet
  facet normal 0.0 0.0 0.0
    outer loop
      vertex -0.006871155926207616 -0.07970436925552402 -0.011006024260622941
      vertex -0.006991178699950294 -0.0796939398731998 -0.010715161223513566
      vertex -0.006958704658965186 -0.07668491429946933 -0.010797520537478402
    endloop
  endfacet
  facet normal 0.0 0.0 0.0
    outer loop
      vertex -0.006871155926207616 -0.07970436925552402 -0.011006024260622941
      vertex -0.006958704658965186 -0.07668491429946933 -0.010797520537478402
      vertex -0.00683514375350864 -0.07669602269790683 -0.011086800475222543
    endloop
  endfacet
  facet normal 0.0 0.0 0.0
    outer loop
      vertex -0.006738665291289402 -0.0797156683888248 -0.01129124917517372
      vertex -0.006871155926207616 -0.07970436925552402 -0.011006024260622941
      vertex -0.00683514375350864 -0.07669602269790683 -0.011086800475222543
    endloop
  endfacet
  facet normal 0.0 0.0 0.0
    outer loop
      vertex -0.006738665291289402 -0.0797156683888248 -0.01129124917517372
      vertex -0.00683514375350864 -0.07669602269790683 -0.011086800475222543
      vertex -0.006699310490111421 -0.07670799321792636 -0.011370243926150275
    endloop
  endfacet
  facet normal 0.0 0.0 0.0
    outer loop
      vertex -0.006594421097258637 -0.07972771520278964 -0.011570153136355362
      vertex -0.006738665291289402 -0.0797156683888248 -0.01129124917517372
      vertex -0.006699310490111421 -0.07670799321792636 -0.011370243926150275
    endloop
  endfacet
  facet normal 0.0 0.0 0.0
    outer loop
      vertex -0.006594421097258637 -0.07972771520278964 -0.011570153136355362
      vertex -0.006699310490111421 -0.07670799321792636 -0.011370243926150275
      vertex -0.006551935383299896 -0.07672070378921542 -0.011647183318240117
    endloop
  endfacet
  facet normal 0.0 0.0 0.0
    outer loop
      vertex -0.006439155289153167 -0.07974038762710604 -0.011842068572146376
      vertex -0.006594421097258637 -0.07972771520278964 -0.011570153136355362
      vertex -0.006551935383299896 -0.07672070378921542 -0.011647183318240117
    endloop
  endfacet
  facet normal 0.0 0.0 0.0
    outer loop
      vertex -0.006439155289153167 -0.07974038762710604 -0.011842068572146376
      vertex -0.006551935383299896 -0.07672070378921542 -0.011647183318240117
      vertex -0.006393751331786221 -0.07673402471206699 -0.011916951079470585
    endloop
  endfacet
  facet normal 0.0 0.0 0.0
    outer loop
      vertex -0.006273602196196622 -0.07975357122085605 -0.012106331725222547
      vertex -0.006439155289153167 -0.07974038762710604 -0.011842068572146376
      vertex -0.006393751331786221 -0.07673402471206699 -0.011916951079470585
    endloop
  endfacet
  facet normal 0.0 0.0 0.0
    outer loop
      vertex -0.006273602196196622 -0.07975357122085605 -0.012106331725222547
      vertex -0.006393751331786221 -0.07673402471206699 -0.011916951079470585
      vertex -0.006225490757445399 -0.07674784917495761 -0.012178879637820194
    endloop
  endfacet
  facet normal 0.0 0.0 0.0
    outer loop
      vertex -0.006098494240264003 -0.07976715154312165 -0.012362267394167856
      vertex -0.006273602196196622 -0.07975357122085605 -0.012106331725222547
      vertex -0.006225490757445399 -0.07674784917495761 -0.012178879637820194
    endloop
  endfacet
  facet normal 0.0 0.0 0.0
    outer loop
      vertex -0.006098494240264003 -0.07976715154312165 -0.012362267394167856
      vertex -0.006225490757445399 -0.07674784917495761 -0.012178879637820194
      vertex -0.006047886082152429 -0.07676205510757478 -0.012432297606570194
    endloop
  endfacet
  facet normal 0.0 0.0 0.0
    outer loop
      vertex -0.005914564320067468 -0.07978100652359041 -0.012609208006960826
      vertex -0.006098494240264003 -0.07976715154312165 -0.012362267394167856
      vertex -0.006047886082152429 -0.07676205510757478 -0.012432297606570194
    endloop
  endfacet
  facet normal 0.0 0.0 0.0
    outer loop
      vertex -0.005914564320067468 -0.07978100652359041 -0.012609208006960826
      vertex -0.006047886082152429 -0.07676205510757478 -0.012432297606570194
      vertex -0.00586166972778231 -0.0767765128102115 -0.012676541228396364
    endloop
  endfacet
  facet normal 0.0 0.0 0.0
    outer loop
      vertex -0.005722545811156334 -0.07979502935073884 -0.01284648980627723
      vertex -0.005914564320067468 -0.07978100652359041 -0.012609208006960826
      vertex -0.00586166972778231 -0.0767765128102115 -0.012676541228396364
    endloop
  endfacet
  facet normal 0.0 0.0 0.0
    outer loop
      vertex -0.005722545811156334 -0.07979502935073884 -0.01284648980627723
      vertex -0.00586166972778231 -0.0767765128102115 -0.012676541228396364
      vertex -0.005667574593047201 -0.07679110784194979 -0.012910939116579957
    endloop
  endfacet
  facet normal 0.0 0.0 0.0
    outer loop
      vertex -0.005523171135405599 -0.07980909795425446 -0.013073437590701056
      vertex -0.005722545811156334 -0.07979502935073884 -0.01284648980627723
      vertex -0.005667574593047201 -0.07679110784194979 -0.012910939116579957
    endloop
  endfacet
  facet normal 0.0 0.0 0.0
    outer loop
      vertex -0.005523171135405599 -0.07980909795425446 -0.013073437590701056
      vertex -0.005667574593047201 -0.07679110784194979 -0.012910939116579957
      vertex -0.005466332622984943 -0.07680571813247712 -0.013134823699099487
    endloop
  endfacet
  facet normal 0.0 0.0 0.0
    outer loop
      vertex -0.005317174622038898 -0.07982310552261385 -0.013289387602908086
      vertex -0.005466332622984943 -0.07680571813247712 -0.013134823699099487
      vertex -0.0052585446324148735 -0.07682022924087556 -0.013347660918337766
    endloop
  endfacet
  facet normal 0.0 0.0 0.0
    outer loop
      vertex -0.005317174622038898 -0.07982310552261385 -0.013289387602908086
      vertex -0.005523171135405599 -0.07980909795425446 -0.013073437590701056
      vertex -0.005466332622984943 -0.07680571813247712 -0.013134823699099487
    endloop
  endfacet
  facet normal 0.0 0.0 0.0
    outer loop
      vertex -0.0051027199711599905 -0.0798370825733951 -0.013496220488650271
      vertex -0.0052585446324148735 -0.07682022924087556 -0.013347660918337766
      vertex -0.005041006275633866 -0.0768347861256412 -0.01355268182287878
    endloop
  endfacet
  facet normal 0.0 0.0 0.0
    outer loop
      vertex -0.0051027199711599905 -0.0798370825733951 -0.013496220488650271
      vertex -0.005317174622038898 -0.07982310552261385 -0.013289387602908086
      vertex -0.0052585446324148735 -0.07682022924087556 -0.013347660918337766
    endloop
  endfacet
  facet normal 0.0 0.0 0.0
    outer loop
      vertex -0.004877190300444657 -0.07985114354751618 -0.013696514983279177
      vertex -0.005041006275633866 -0.0768347861256412 -0.01355268182287878
      vertex -0.004812571712950759 -0.07684939641616853 -0.013750973601443232
    endloop
  endfacet
  facet normal 0.0 0.0 0.0
    outer loop
      vertex -0.004877190300444657 -0.07985114354751618 -0.013696514983279177
      vertex -0.0051027199711599905 -0.0798370825733951 -0.013496220488650271
      vertex -0.005041006275633866 -0.0768347861256412 -0.01355268182287878
    endloop
  endfacet
  facet normal 0.0 0.0 0.0
    outer loop
      vertex -0.0046412407841482685 -0.07986516637466462 -0.013889553923708862
      vertex -0.004812571712950759 -0.07684939641616853 -0.013750973601443232
      vertex -0.00457390803954988 -0.07686393041275057 -0.013941811461550652
    endloop
  endfacet
  facet normal 0.0 0.0 0.0
    outer loop
      vertex -0.0046412407841482685 -0.07986516637466462 -0.013889553923708862
      vertex -0.004877190300444657 -0.07985114354751618 -0.013696514983279177
      vertex -0.004812571712950759 -0.07684939641616853 -0.013750973601443232
    endloop
  endfacet
  facet normal 0.0 0.0 0.0
    outer loop
      vertex -0.004395540424803785 -0.07987903661392244 -0.014074597258669797
      vertex -0.00457390803954988 -0.07686393041275057 -0.013941811461550652
      vertex -0.004325683781127026 -0.07687827367446931 -0.014124459166628774
    endloop
  endfacet
  facet normal 0.0 0.0 0.0
    outer loop
      vertex -0.004395540424803785 -0.07987903661392244 -0.014074597258669797
      vertex -0.0046412407841482685 -0.07986516637466462 -0.013889553923708862
      vertex -0.00457390803954988 -0.07686393041275057 -0.013941811461550652
    endloop
  endfacet
  facet normal 0.0 0.0 0.0
    outer loop
      vertex -0.004140757748107006 -0.07989263982437166 -0.014250916380984248
      vertex -0.004325683781127026 -0.07687827367446931 -0.014124459166628774
      vertex -0.0040685665097036855 -0.07689230413101228 -0.014298184294802601
    endloop
  endfacet
  facet normal 0.0 0.0 0.0
    outer loop
      vertex -0.004140757748107006 -0.07989263982437166 -0.014250916380984248
      vertex -0.004395540424803785 -0.07987903661392244 -0.014074597258669797
      vertex -0.004325683781127026 -0.07687827367446931 -0.014124459166628774
    endloop
  endfacet
  facet normal 0.0 0.0 0.0
    outer loop
      vertex -0.003877561518172313 -0.07990586156509431 -0.014417782683474482
      vertex -0.0040685665097036855 -0.07689230413101228 -0.014298184294802601
      vertex -0.0038032247509756567 -0.0769059073414615 -0.014462250609499865
    endloop
  endfacet
  facet normal 0.0 0.0 0.0
    outer loop
      vertex -0.003877561518172313 -0.07990586156509431 -0.014417782683474482
      vertex -0.004140757748107006 -0.07989263982437166 -0.014250916380984248
      vertex -0.0040685665097036855 -0.07689230413101228 -0.014298184294802601
    endloop
  endfacet
  facet normal 0.0 0.0 0.0
    outer loop
      vertex -0.0036066204991140847 -0.0799185797657779 -0.0145744523001737
      vertex -0.0038032247509756567 -0.0769059073414615 -0.014462250609499865
      vertex -0.003530326076964425 -0.07691895360610994 -0.014615933318240097
    endloop
  endfacet
  facet normal 0.0 0.0 0.0
    outer loop
      vertex -0.0036066204991140847 -0.0799185797657779 -0.0145744523001737
      vertex -0.003877561518172313 -0.07990586156509431 -0.014417782683474482
      vertex -0.0038032247509756567 -0.0769059073414615 -0.014462250609499865
    endloop
  endfacet
  facet normal 0.0 0.0 0.0
    outer loop
      vertex -0.0033286032166281215 -0.07993067998550447 -0.014720200438601432
      vertex -0.003530326076964425 -0.07691895360610994 -0.014615933318240097
      vertex -0.0032505387749472117 -0.07693132848403962 -0.014758492369753767
    endloop
  endfacet
  facet normal 0.0 0.0 0.0
    outer loop
      vertex -0.0033286032166281215 -0.07993067998550447 -0.014720200438601432
      vertex -0.0036066204991140847 -0.0799185797657779 -0.0145744523001737
      vertex -0.003530326076964425 -0.07691895360610994 -0.014615933318240097
    endloop
  endfacet
  facet normal 0.0 0.0 0.0
    outer loop
      vertex -0.0030441784348288043 -0.07994205541275057 -0.01485429467688268
      vertex -0.0032505387749472117 -0.07693132848403962 -0.014758492369753767
      vertex -0.002964530655364081 -0.07694290990493806 -0.01488919915686314
    endloop
  endfacet
  facet normal 0.0 0.0 0.0
    outer loop
      vertex -0.0030441784348288043 -0.07994205541275057 -0.01485429467688268
      vertex -0.0033286032166281215 -0.07993067998550447 -0.014720200438601432
      vertex -0.0032505387749472117 -0.07693132848403962 -0.014758492369753767
    endloop
  endfacet
  facet normal 0.0 0.0 0.0
    outer loop
      vertex -0.0027540177788534614 -0.07995257634780915 -0.014976002593142445
      vertex -0.002964530655364081 -0.07694290990493806 -0.01488919915686314
      vertex -0.002672985741118475 -0.07695356816909822 -0.015007359404665872
    endloop
  endfacet
  facet normal 0.0 0.0 0.0
    outer loop
      vertex -0.0027540177788534614 -0.07995257634780915 -0.014976002593142445
      vertex -0.0030441784348288043 -0.07994205541275057 -0.01485429467688268
      vertex -0.002964530655364081 -0.07694290990493806 -0.01488919915686314
    endloop
  endfacet
  facet normal 0.0 0.0 0.0
    outer loop
      vertex -0.002458925911406561 -0.07996212072036775 -0.015084927458865097
      vertex -0.002672985741118475 -0.07695356816909822 -0.015007359404665872
      vertex -0.002376774021605535 -0.07696319646499665 -0.015112725157839698
    endloop
  endfacet
  facet normal 0.0 0.0 0.0
    outer loop
      vertex -0.002458925911406561 -0.07996212072036775 -0.015084927458865097
      vertex -0.0027540177788534614 -0.07995257634780915 -0.014976002593142445
      vertex -0.002672985741118475 -0.07695356816909822 -0.015007359404665872
    endloop
  endfacet
  facet normal 0.0 0.0 0.0
    outer loop
      vertex -0.002159883209685369 -0.07997065801284822 -0.015181073088747908
      vertex -0.002376774021605535 -0.07696319646499665 -0.015112725157839698
      vertex -0.0020768854107656902 -0.07697177190444979 -0.01520533837805454
    endloop
  endfacet
  facet normal 0.0 0.0 0.0
    outer loop
      vertex -0.002159883209685369 -0.07997065801284822 -0.015181073088747908
      vertex -0.002458925911406561 -0.07996212072036775 -0.015084927458865097
      vertex -0.002376774021605535 -0.07696319646499665 -0.015112725157839698
    endloop
  endfacet
  facet normal 0.0 0.0 0.0
    outer loop
      vertex -0.0018578820910253953 -0.07997815770767244 -0.015264489073855329
      vertex -0.0020768854107656902 -0.07697177190444979 -0.01520533837805454
      vertex -0.0017743120875158727 -0.07697925634048494 -0.015285237212283052
    endloop
  endfacet
  facet normal 0.0 0.0 0.0
    outer loop
      vertex -0.0018578820910253953 -0.07997815770767244 -0.015264489073855329
      vertex -0.002159883209685369 -0.07997065801284822 -0.015181073088747908
      vertex -0.0020768854107656902 -0.07697177190444979 -0.01520533837805454
    endloop
  endfacet
  facet normal 0.0 0.0 0.0
    outer loop
      vertex -0.0015539154495993084 -0.07998458928726228 -0.015335213561160013
      vertex -0.0017743120875158727 -0.07697925634048494 -0.015285237212283052
      vertex -0.0014700456347265655 -0.07698563451431306 -0.015352455992800629
    endloop
  endfacet
  facet normal 0.0 0.0 0.0
    outer loop
      vertex -0.0015539154495993084 -0.07998458928726228 -0.015335213561160013
      vertex -0.0018578820910253953 -0.07997815770767244 -0.015264489073855329
      vertex -0.0017743120875158727 -0.07697925634048494 -0.015285237212283052
    endloop
  endfacet
  facet normal 0.0 0.0 0.0
    outer loop
      vertex -0.0012489759411611976 -0.07998993749282869 -0.015393288512331885
      vertex -0.0014700456347265655 -0.07698563451431306 -0.015352455992800629
      vertex -0.0011650783505239896 -0.07699087590835603 -0.015407044310671721
    endloop
  endfacet
  facet normal 0.0 0.0 0.0
    outer loop
      vertex -0.0012489759411611976 -0.07998993749282869 -0.015393288512331885
      vertex -0.0015539154495993084 -0.07998458928726228 -0.015335213561160013
      vertex -0.0014700456347265655 -0.07698563451431306 -0.015352455992800629
    endloop
  endfacet
  facet normal 0.0 0.0 0.0
    outer loop
      vertex -0.0009440561022558626 -0.07999417943618806 -0.015438752074343602
      vertex -0.0011650783505239896 -0.07699087590835603 -0.015407044310671721
      vertex -0.0008604018773832726 -0.07699495763443025 -0.015449040312868985
    endloop
  endfacet
  facet normal 0.0 0.0 0.0
    outer loop
      vertex -0.0009440561022558626 -0.07999417943618806 -0.015438752074343602
      vertex -0.0012489759411611976 -0.07998993749282869 -0.015393288512331885
      vertex -0.0011650783505239896 -0.07699087590835603 -0.015407044310671721
    endloop
  endfacet
  facet normal 0.0 0.0 0.0
    outer loop
      vertex -0.0006401485886373931 -0.07999728459976228 -0.015471646208865085
      vertex -0.0009440561022558626 -0.07999417943618806 -0.015438752074343602
      vertex -0.0008604018773832726 -0.07699495763443025 -0.015449040312868985
    endloop
  endfacet
  facet normal 0.0 0.0 0.0
    outer loop
      vertex -0.0006401485886373931 -0.07999728459976228 -0.015471646208865085
      vertex -0.0008604018773832726 -0.07699495763443025 -0.015449040312868985
      vertex -0.0005570082750120565 -0.07699785680435213 -0.015478482146365075
    endloop
  endfacet
  facet normal 0.0 0.0 0.0
    outer loop
      vertex -0.0003382461454668454 -0.07999923009536775 -0.015492012877566253
      vertex -0.0006401485886373931 -0.07999728459976228 -0.015471646208865085
      vertex -0.0005570082750120565 -0.07699785680435213 -0.015478482146365075
    endloop
  endfacet
  facet normal 0.0 0.0 0.0
    outer loop
      vertex -0.0003382461454668454 -0.07999923009536775 -0.015492012877566253
      vertex -0.0005570082750120565 -0.07699785680435213 -0.015478482146365075
      vertex -0.0002558895435133381 -0.07699954290054353 -0.015495415587527182
    endloop
  endfacet
  facet normal 0.0 0.0 0.0
    outer loop
      vertex -3.934136703101907e-05 -0.07999999303482087 -0.015499890227419768
      vertex -0.0003382461454668454 -0.07999923009536775 -0.015492012877566253
      vertex -0.0002558895435133381 -0.07699954290054353 -0.015495415587527182
    endloop
  endfacet
  facet normal 0.0 0.0 0.0
    outer loop
      vertex -3.934136703101907e-05 -0.07999999303482087 -0.015499890227419768
      vertex -0.0002558895435133381 -0.07699954290054353 -0.015495415587527182
      vertex 4.204514511438182e-05 -0.07699998540542634 -0.015499874968630695
    endloop
  endfacet
  facet normal 0.0 0.0 0.0
    outer loop
      vertex 0.00025867473222823824 -0.07999955052993807 -0.015495316405398281
      vertex 4.204514511438182e-05 -0.07699998540542634 -0.015499874968630695
      vertex 0.00034092350937934684 -0.07699918431900056 -0.015491886992556476
    endloop
  endfacet
  facet normal 0.0 0.0 0.0
    outer loop
      vertex 0.00025867473222823824 -0.07999955052993807 -0.015495316405398281
      vertex -3.934136703101907e-05 -0.07999999303482087 -0.015499890227419768
      vertex 4.204514511438182e-05 -0.07699998540542634 -0.015499874968630695
    endloop
  endfacet
  facet normal 0.0 0.0 0.0
    outer loop
      vertex 0.0005598791752061433 -0.07999791021011385 -0.015478264708620935
      vertex 0.00034092350937934684 -0.07699918431900056 -0.015491886992556476
      vertex 0.0006427875671586588 -0.07699715490005525 -0.015471413512331863
    endloop
  endfacet
  facet normal 0.0 0.0 0.0
    outer loop
      vertex 0.0005598791752061433 -0.07999791021011385 -0.015478264708620935
      vertex 0.00025867473222823824 -0.07999955052993807 -0.015495316405398281
      vertex 0.00034092350937934684 -0.07699918431900056 -0.015491886992556476
    endloop
  endfacet
  facet normal 0.0 0.0 0.0
    outer loop
      vertex 0.0008633518133363311 -0.07999511785171541 -0.015448693175417806
      vertex 0.0006427875671586588 -0.07699715490005525 -0.015471413512331863
      vertex 0.0009466453705033851 -0.076993920036774 -0.015438416380984204
    endloop
  endfacet
  facet normal 0.0 0.0 0.0
    outer loop
      vertex 0.0008633518133363311 -0.07999511785171541 -0.015448693175417806
      vertex 0.0005598791752061433 -0.07999791021011385 -0.015478264708620935
      vertex 0.0006427875671586588 -0.07699715490005525 -0.015471413512331863
    endloop
  endfacet
  facet normal 0.0 0.0 0.0
    outer loop
      vertex 0.0011681000504693568 -0.07999117345474276 -0.01540656747351351
      vertex 0.0009466453705033851 -0.076993920036774 -0.015438416380984204
      vertex 0.001251504949112851 -0.07698951024673494 -0.015392857451540844
    endloop
  endfacet
  facet normal 0.0 0.0 0.0
    outer loop
      vertex 0.0011681000504693568 -0.07999117345474276 -0.01540656747351351
      vertex 0.0008633518133363311 -0.07999511785171541 -0.015448693175417806
      vertex 0.0009466453705033851 -0.076993920036774 -0.015438416380984204
    endloop
  endfacet
  facet normal 0.0 0.0 0.0
    outer loop
      vertex 0.0014731309924325522 -0.07998611516616853 -0.015351841826540851
      vertex 0.001251504949112851 -0.07698951024673494 -0.015392857451540844
      vertex 0.0015563743624887052 -0.07698394078872713 -0.015334694762331855
    endloop
  endfacet
  facet normal 0.0 0.0 0.0
    outer loop
      vertex 0.0014731309924325522 -0.07998611516616853 -0.015351841826540851
      vertex 0.0011681000504693568 -0.07999117345474276 -0.01540656747351351
      vertex 0.001251504949112851 -0.07698951024673494 -0.015392857451540844
    endloop
  endfacet
  facet normal 0.0 0.0 0.0
    outer loop
      vertex 0.0017774522814950518 -0.07997996587417634 -0.01528447427282991
      vertex 0.0015563743624887052 -0.07698394078872713 -0.015334694762331855
      vertex 0.0018602617297372398 -0.07697724980972322 -0.015263886351687322
    endloop
  endfacet
  facet normal 0.0 0.0 0.0
    outer loop
      vertex 0.0017774522814950518 -0.07997996587417634 -0.01528447427282991
      vertex 0.0014731309924325522 -0.07998611516616853 -0.015351841826540851
      vertex 0.0015563743624887052 -0.07698394078872713 -0.015334694762331855
    endloop
  endfacet
  facet normal 0.0 0.0 0.0
    outer loop
      vertex 0.002080071023484187 -0.07997274846694978 -0.015204426665408033
      vertex 0.0018602617297372398 -0.07697724980972322 -0.015263886351687322
      vertex 0.0021621749911508135 -0.07696945256851229 -0.015180390257937321
    endloop
  endfacet
  facet normal 0.0 0.0 0.0
    outer loop
      vertex 0.002080071023484187 -0.07997274846694978 -0.015204426665408033
      vertex 0.0017774522814950518 -0.07997996587417634 -0.01528447427282991
      vertex 0.0018602617297372398 -0.07697724980972322 -0.015263886351687322
    endloop
  endfacet
  facet normal 0.0 0.0 0.0
    outer loop
      vertex 0.0023799946818551577 -0.07996448583267243 -0.015111657042605297
      vertex 0.0021621749911508135 -0.07696945256851229 -0.015180390257937321
      vertex 0.0024611225638589427 -0.0769605719532779 -0.015084168334109194
    endloop
  endfacet
  facet normal 0.0 0.0 0.0
    outer loop
      vertex 0.0023799946818551577 -0.07996448583267243 -0.015111657042605297
      vertex 0.002080071023484187 -0.07997274846694978 -0.015204426665408033
      vertex 0.0021621749911508135 -0.07696945256851229 -0.015180390257937321
    endloop
  endfacet
  facet normal 0.0 0.0 0.0
    outer loop
      vertex 0.002676230720063165 -0.07995520085952791 -0.01500612344275178
      vertex 0.0024611225638589427 -0.0769605719532779 -0.015084168334109194
      vertex 0.0027561121497354066 -0.07695065374038729 -0.014975178618533019
    endloop
  endfacet
  facet normal 0.0 0.0 0.0
    outer loop
      vertex 0.002676230720063165 -0.07995520085952791 -0.01500612344275178
      vertex 0.0023799946818551577 -0.07996448583267243 -0.015111657042605297
      vertex 0.0024611225638589427 -0.0769605719532779 -0.015084168334109194
    endloop
  endfacet
  facet normal 0.0 0.0 0.0
    outer loop
      vertex 0.002967788508912041 -0.07994493169448884 -0.01488779153357209
      vertex 0.0027561121497354066 -0.07695065374038729 -0.014975178618533019
      vertex 0.0030461643252572565 -0.07693971318862947 -0.014853409667117
    endloop
  endfacet
  facet normal 0.0 0.0 0.0
    outer loop
      vertex 0.002967788508912041 -0.07994493169448884 -0.01488779153357209
      vertex 0.002676230720063165 -0.07995520085952791 -0.01500612344275178
      vertex 0.0027561121497354066 -0.07695065374038729 -0.014975178618533019
    endloop
  endfacet
  facet normal 0.0 0.0 0.0
    outer loop
      vertex 0.0032537999663552774 -0.07993376989028962 -0.014756913085085758
      vertex 0.0030461643252572565 -0.07693971318862947 -0.014853409667117
      vertex 0.0033304777655801315 -0.07692789525650057 -0.014719269652468562
    endloop
  endfacet
  facet normal 0.0 0.0 0.0
    outer loop
      vertex 0.0032537999663552774 -0.07993376989028962 -0.014756913085085758
      vertex 0.002967788508912041 -0.07994493169448884 -0.01488779153357209
      vertex 0.0030461643252572565 -0.07693971318862947 -0.014853409667117
    endloop
  endfacet
  facet normal 0.0 0.0 0.0
    outer loop
      vertex 0.0035335808310708525 -0.07992185277603181 -0.014614186186892397
      vertex 0.0033304777655801315 -0.07692789525650057 -0.014719269652468562
      vertex 0.003608380845566702 -0.07691532201431306 -0.01457348336706817
    endloop
  endfacet
  facet normal 0.0 0.0 0.0
    outer loop
      vertex 0.0035335808310708525 -0.07992185277603181 -0.014614186186892397
      vertex 0.0032537999663552774 -0.07993376989028962 -0.014756913085085758
      vertex 0.0033304777655801315 -0.07692789525650057 -0.014719269652468562
    endloop
  endfacet
  facet normal 0.0 0.0 0.0
    outer loop
      vertex 0.003806463054200124 -0.07990927953384432 -0.014460335631472473
      vertex 0.003608380845566702 -0.07691532201431306 -0.01457348336706817
      vertex 0.003879206231614065 -0.0769021002735904 -0.014416783232790824
    endloop
  endfacet
  facet normal 0.0 0.0 0.0
    outer loop
      vertex 0.003806463054200124 -0.07990927953384432 -0.014460335631472473
      vertex 0.0035335808310708525 -0.07992185277603181 -0.014614186186892397
      vertex 0.003608380845566702 -0.07691532201431306 -0.01457348336706817
    endloop
  endfacet
  facet normal 0.0 0.0 0.0
    outer loop
      vertex 0.004071777633210132 -0.07989618749282869 -0.014296105284792783
      vertex 0.003879206231614065 -0.0769021002735904 -0.014416783232790824
      vertex 0.004142285159607838 -0.07688836736343416 -0.01424990548620879
    endloop
  endfacet
  facet normal 0.0 0.0 0.0
    outer loop
      vertex 0.004071777633210132 -0.07989618749282869 -0.014296105284792783
      vertex 0.003806463054200124 -0.07990927953384432 -0.014460335631472473
      vertex 0.003879206231614065 -0.0769021002735904 -0.014416783232790824
    endloop
  endfacet
  facet normal 0.0 0.0 0.0
    outer loop
      vertex 0.00432885532714934 -0.07988267583511384 -0.014122219939333797
      vertex 0.004142285159607838 -0.07688836736343416 -0.01424990548620879
      vertex 0.004396950534363697 -0.07687423772476228 -0.014073578734499805
    endloop
  endfacet
  facet normal 0.0 0.0 0.0
    outer loop
      vertex 0.00432885532714934 -0.07988267583511384 -0.014122219939333797
      vertex 0.004071777633210132 -0.07989618749282869 -0.014296105284792783
      vertex 0.004142285159607838 -0.07688836736343416 -0.01424990548620879
    endloop
  endfacet
  facet normal 0.0 0.0 0.0
    outer loop
      vertex 0.004577028563996262 -0.07986886663101228 -0.013939415831667778
      vertex 0.004396950534363697 -0.07687423772476228 -0.014073578734499805
      vertex 0.004642533591767259 -0.07685982579849275 -0.01388853921423613
    endloop
  endfacet
  facet normal 0.0 0.0 0.0
    outer loop
      vertex 0.004577028563996262 -0.07986886663101228 -0.013939415831667778
      vertex 0.00432885532714934 -0.07988267583511384 -0.014122219939333797
      vertex 0.004396950534363697 -0.07687423772476228 -0.014073578734499805
    endloop
  endfacet
  facet normal 0.0 0.0 0.0
    outer loop
      vertex 0.004815628341217942 -0.07985486669204744 -0.01374842538366973
      vertex 0.004577028563996262 -0.07986886663101228 -0.013939415831667778
      vertex 0.004642533591767259 -0.07685982579849275 -0.01388853921423613
    endloop
  endfacet
  facet normal 0.0 0.0 0.0
    outer loop
      vertex 0.004815628341217942 -0.07985486669204744 -0.01374842538366973
      vertex 0.004642533591767259 -0.07685982579849275 -0.01388853921423613
      vertex 0.004878366759797042 -0.0768452612843326 -0.013695511717898238
    endloop
  endfacet
  facet normal 0.0 0.0 0.0
    outer loop
      vertex 0.005043985179444258 -0.07984080571792634 -0.013549984831911915
      vertex 0.004815628341217942 -0.07985486669204744 -0.01374842538366973
      vertex 0.004878366759797042 -0.0768452612843326 -0.013695511717898238
    endloop
  endfacet
  facet normal 0.0 0.0 0.0
    outer loop
      vertex 0.005043985179444258 -0.07984080571792634 -0.013549984831911915
      vertex 0.004878366759797042 -0.0768452612843326 -0.013695511717898238
      vertex 0.005103781512757247 -0.07683065099380525 -0.013495240111452924
    endloop
  endfacet
  facet normal 0.0 0.0 0.0
    outer loop
      vertex 0.005261431506653729 -0.07982679814956697 -0.01334482278357207
      vertex 0.005043985179444258 -0.07984080571792634 -0.013549984831911915
      vertex 0.005103781512757247 -0.07683065099380525 -0.013495240111452924
    endloop
  endfacet
  facet normal 0.0 0.0 0.0
    outer loop
      vertex 0.005261431506653729 -0.07982679814956697 -0.01334482278357207
      vertex 0.005103781512757247 -0.07683065099380525 -0.013495240111452924
      vertex 0.005318125537415448 -0.07681612462661774 -0.013288433928591595
    endloop
  endfacet
  facet normal 0.0 0.0 0.0
    outer loop
      vertex 0.005469177058716716 -0.07981282109878572 -0.01313178338537871
      vertex 0.005261431506653729 -0.07982679814956697 -0.01334482278357207
      vertex 0.005318125537415448 -0.07681612462661774 -0.013288433928591595
    endloop
  endfacet
  facet normal 0.0 0.0 0.0
    outer loop
      vertex 0.005469177058716716 -0.07981282109878572 -0.01313178338537871
      vertex 0.005318125537415448 -0.07681612462661774 -0.013288433928591595
      vertex 0.005524038127442302 -0.07680158300064119 -0.013072491545779092
    endloop
  endfacet
  facet normal 0.0 0.0 0.0
    outer loop
      vertex 0.005670378497620523 -0.07979876012466464 -0.0129076851798123
      vertex 0.005524038127442302 -0.07680158300064119 -0.013072491545779092
      vertex 0.0057233293566903475 -0.07678696508071933 -0.012845559020144325
    endloop
  endfacet
  facet normal 0.0 0.0 0.0
    outer loop
      vertex 0.005670378497620523 -0.07979876012466464 -0.0129076851798123
      vertex 0.005469177058716716 -0.07981282109878572 -0.01313178338537871
      vertex 0.005524038127442302 -0.07680158300064119 -0.013072491545779092
    endloop
  endfacet
  facet normal 0.0 0.0 0.0
    outer loop
      vertex 0.005864418319245277 -0.0797847144093326 -0.012673077483279099
      vertex 0.0057233293566903475 -0.07678696508071933 -0.012845559020144325
      vertex 0.005915266326447425 -0.07677239293716463 -0.012608303923708776
    endloop
  endfacet
  facet normal 0.0 0.0 0.0
    outer loop
      vertex 0.005864418319245277 -0.0797847144093326 -0.012673077483279099
      vertex 0.005670378497620523 -0.07979876012466464 -0.0129076851798123
      vertex 0.0057233293566903475 -0.07678696508071933 -0.012845559020144325
    endloop
  endfacet
  facet normal 0.0 0.0 0.0
    outer loop
      vertex 0.006050564101715978 -0.07977079839370761 -0.012428631682497845
      vertex 0.005864418319245277 -0.0797847144093326 -0.012673077483279099
      vertex 0.005915266326447425 -0.07677239293716463 -0.012608303923708776
    endloop
  endfacet
  facet normal 0.0 0.0 0.0
    outer loop
      vertex 0.006050564101715978 -0.07977079839370761 -0.012428631682497845
      vertex 0.005915266326447425 -0.07677239293716463 -0.012608303923708776
      vertex 0.006099117091675695 -0.07675799626968417 -0.012361393828493933
    endloop
  endfacet
  facet normal 0.0 0.0 0.0
    outer loop
      vertex 0.006228081992646153 -0.07975713414810214 -0.012175015349490032
      vertex 0.006050564101715978 -0.07977079839370761 -0.012428631682497845
      vertex 0.006099117091675695 -0.07675799626968417 -0.012361393828493933
    endloop
  endfacet
  facet normal 0.0 0.0 0.0
    outer loop
      vertex 0.006228081992646153 -0.07975713414810214 -0.012175015349490032
      vertex 0.006099117091675695 -0.07675799626968417 -0.012361393828493933
      vertex 0.00627414827682584 -0.07674388951919589 -0.012105496306521274
    endloop
  endfacet
  facet normal 0.0 0.0 0.0
    outer loop
      vertex 0.006396240046997957 -0.07974383611343418 -0.01191289605627714
      vertex 0.006228081992646153 -0.07975713414810214 -0.012175015349490032
      vertex 0.00627414827682584 -0.07674388951919589 -0.012105496306521274
    endloop
  endfacet
  facet normal 0.0 0.0 0.0
    outer loop
      vertex 0.006396240046997957 -0.07974383611343418 -0.01191289605627714
      vertex 0.00627414827682584 -0.07674388951919589 -0.012105496306521274
      vertex 0.006439628413697176 -0.0767301947560123 -0.011841278929812286
    endloop
  endfacet
  facet normal 0.0 0.0 0.0
    outer loop
      vertex 0.006554303935547759 -0.07973101873062167 -0.011642945189577921
      vertex 0.006396240046997957 -0.07974383611343418 -0.01191289605627714
      vertex 0.006439628413697176 -0.0767301947560123 -0.011841278929812286
    endloop
  endfacet
  facet normal 0.0 0.0 0.0
    outer loop
      vertex 0.006554303935547759 -0.07973101873062167 -0.011642945189577921
      vertex 0.006439628413697176 -0.0767301947560123 -0.011841278929812286
      vertex 0.006594823649903229 -0.07671703405044589 -0.011569413085085722
    endloop
  endfacet
  facet normal 0.0 0.0 0.0
    outer loop
      vertex 0.006701541713257719 -0.0797187964405826 -0.011365826506716591
      vertex 0.006554303935547759 -0.07973101873062167 -0.011642945189577921
      vertex 0.006594823649903229 -0.07671703405044589 -0.011569413085085722
    endloop
  endfacet
  facet normal 0.0 0.0 0.0
    outer loop
      vertex 0.006701541713257719 -0.0797187964405826 -0.011365826506716591
      vertex 0.006594823649903229 -0.07671703405044589 -0.011569413085085722
      vertex 0.006739002517243314 -0.07670452184341464 -0.011290562529665801
    endloop
  endfacet
  facet normal 0.0 0.0 0.0
    outer loop
      vertex 0.00683721952774136 -0.07970729131362948 -0.011082215209109167
      vertex 0.006701541713257719 -0.0797187964405826 -0.011365826506716591
      vertex 0.006739002517243314 -0.07670452184341464 -0.011290562529665801
    endloop
  endfacet
  facet normal 0.0 0.0 0.0
    outer loop
      vertex 0.00683721952774136 -0.07970729131362948 -0.011082215209109167
      vertex 0.006739002517243314 -0.07670452184341464 -0.011290562529665801
      vertex 0.0068714321170052755 -0.07669278783462558 -0.011005394835574002
    endloop
  endfacet
  facet normal 0.0 0.0 0.0
    outer loop
      vertex 0.0069606068644723134 -0.07969661016128574 -0.01079277505407987
      vertex 0.00683721952774136 -0.07970729131362948 -0.011082215209109167
      vertex 0.0068714321170052755 -0.07669278783462558 -0.011005394835574002
    endloop
  endfacet
  facet normal 0.0 0.0 0.0
    outer loop
      vertex 0.0069606068644723134 -0.07969661016128574 -0.01079277505407987
      vertex 0.0068714321170052755 -0.07669278783462558 -0.011005394835574002
      vertex 0.006991399577637598 -0.07668194646499667 -0.010714589018923611
    endloop
  endfacet
  facet normal 0.0 0.0 0.0
    outer loop
      vertex 0.007071225455780906 -0.07968689794204745 -0.010498284239870884
      vertex 0.0069606068644723134 -0.07969661016128574 -0.01079277505407987
      vertex 0.006991399577637598 -0.07668194646499667 -0.010714589018923611
    endloop
  endfacet
  facet normal 0.0 0.0 0.0
    outer loop
      vertex 0.007071225455780906 -0.07968689794204745 -0.010498284239870884
      vertex 0.006991399577637598 -0.07668194646499667 -0.010714589018923611
      vertex 0.007098577312012595 -0.07667213506362948 -0.010418980498415798
    endloop
  endfacet
  facet normal 0.0 0.0 0.0
    outer loop
      vertex 0.007169064811249653 -0.07967820043228183 -0.010199707884890415
      vertex 0.007071225455780906 -0.07968689794204745 -0.010498284239870884
      vertex 0.007098577312012595 -0.07667213506362948 -0.010418980498415798
    endloop
  endfacet
  facet normal 0.0 0.0 0.0
    outer loop
      vertex 0.007169064811249653 -0.07967820043228183 -0.010199707884890415
      vertex 0.007098577312012595 -0.07667213506362948 -0.010418980498415798
      vertex 0.007192993453522603 -0.07666337651870761 -0.010119553465945093
    endloop
  endfacet
  facet normal 0.0 0.0 0.0
    outer loop
      vertex 0.007254165938874163 -0.07967053289077793 -0.00989804162512479
      vertex 0.007169064811249653 -0.07967820043228183 -0.010199707884890415
      vertex 0.007192993453522603 -0.07666337651870761 -0.010119553465945093
    endloop
  endfacet
  facet normal 0.0 0.0 0.0
    outer loop
      vertex 0.007254165938874163 -0.07967053289077793 -0.00989804162512479
      vertex 0.007192993453522603 -0.07666337651870761 -0.010119553465945093
      vertex 0.007274688533326067 -0.0766557089772037 -0.009817299742800562
    endloop
  endfacet
  facet normal 0.0 0.0 0.0
    outer loop
      vertex 0.007326569369812881 -0.07966393346450838 -0.009594281096560336
      vertex 0.007254165938874163 -0.07967053289077793 -0.00989804162512479
      vertex 0.007274688533326067 -0.0766557089772037 -0.009817299742800562
    endloop
  endfacet
  facet normal 0.0 0.0 0.0
    outer loop
      vertex 0.007326569369812881 -0.07966393346450838 -0.009594281096560336
      vertex 0.007274688533326067 -0.0766557089772037 -0.009817299742800562
      vertex 0.007343703559418594 -0.0766491400685123 -0.00951321496496853
    endloop
  endfacet
  facet normal 0.0 0.0 0.0
    outer loop
      vertex 0.007386316588898573 -0.07965841741226229 -0.00928941430578885
      vertex 0.007326569369812881 -0.07966393346450838 -0.009594281096560336
      vertex 0.007343703559418594 -0.0766491400685123 -0.00951321496496853
    endloop
  endfacet
  facet normal 0.0 0.0 0.0
    outer loop
      vertex 0.007386316588898573 -0.07965841741226229 -0.00928941430578885
      vertex 0.007343703559418594 -0.0766491400685123 -0.00951321496496853
      vertex 0.007400079062958631 -0.07664371556900057 -0.009208287139040795
    endloop
  endfacet
  facet normal 0.0 0.0 0.0
    outer loop
      vertex 0.007433449080963999 -0.07965400762222323 -0.008984433074099398
      vertex 0.007386316588898573 -0.07965841741226229 -0.00928941430578885
      vertex 0.007400079062958631 -0.07664371556900057 -0.009208287139040795
    endloop
  endfacet
  facet normal 0.0 0.0 0.0
    outer loop
      vertex 0.007433449080963999 -0.07965400762222323 -0.008984433074099398
      vertex 0.007400079062958631 -0.07664371556900057 -0.009208287139040795
      vertex 0.007443855575104625 -0.07663944310806307 -0.008903511901003686
    endloop
  endfacet
  facet normal 0.0 0.0 0.0
    outer loop
      vertex 0.007468006423493294 -0.07965073461196932 -0.00868033685217557
      vertex 0.007433449080963999 -0.07965400762222323 -0.008984433074099398
      vertex 0.007443855575104625 -0.07663944310806307 -0.008903511901003686
    endloop
  endfacet
  facet normal 0.0 0.0 0.0
    outer loop
      vertex 0.007468006423493294 -0.07965073461196932 -0.00868033685217557
      vertex 0.007443855575104625 -0.07663944310806307 -0.008903511901003686
      vertex 0.007475074103852181 -0.07663636846206698 -0.008599877257448998
    endloop
  endfacet
  facet normal 0.0 0.0 0.0
    outer loop
      vertex 0.007490031054993536 -0.0796486288990787 -0.008378113646609163
      vertex 0.007468006423493294 -0.07965073461196932 -0.00868033685217557
      vertex 0.007475074103852181 -0.07663636846206698 -0.008599877257448998
    endloop
  endfacet
  facet normal 0.0 0.0 0.0
    outer loop
      vertex 0.007490031054993536 -0.0796486288990787 -0.008378113646609163
      vertex 0.007475074103852181 -0.07663636846206698 -0.008599877257448998
      vertex 0.007493775180359747 -0.07663449926040683 -0.008298375029665796
    endloop
  endfacet
  facet normal 0.0 0.0 0.0
    outer loop
      vertex 0.0074975092921456335 -0.07964790410659824 -0.008188355345827913
      vertex 0.007490031054993536 -0.0796486288990787 -0.008378113646609163
      vertex 0.007493775180359747 -0.07663449926040683 -0.008298375029665796
    endloop
  endfacet
  facet normal 0.0 0.0 0.0
    outer loop
      vertex 0.0074975092921456335 -0.07964790410659824 -0.008188355345827913
      vertex 0.007493775180359747 -0.07663449926040683 -0.008298375029665796
      vertex 0.007499999812622928 -0.07663386602066075 -0.008000000853640405
    endloop
  endfacet
  facet normal 0.0 0.0 0.0
    outer loop
      vertex 0.0074999998126229275 -0.07964765996597324 -0.008000000853640414
      vertex 0.0074975092921456335 -0.07964790410659824 -0.008188355345827913
      vertex 0.007499999812622928 -0.07663386602066075 -0.008000000853640405
    endloop
  endfacet
  facet normal 0.0 0.0 0.0
    outer loop
      vertex 0.0074999998126228686 -0.07964765996597326 -8.536404130849568e-10
      vertex 0.0074999998126229275 -0.07964765996597324 -0.008000000853640414
      vertex 0.007499999812622928 -0.07663386602066075 -0.008000000853640405
    endloop
  endfacet
  facet normal 0.0 0.0 0.0
    outer loop
      vertex 0.0074999998126228686 -0.07964765996597326 -8.536404130849568e-10
      vertex 0.007499999812622928 -0.07663386602066075 -0.008000000853640405
      vertex 0.007499999812622869 -0.07663386602066076 -8.53640404608432e-10
    endloop
  endfacet
endsolid mesh
